<svg width="100" height="100" viewBox="0 0 100 100" fill="none" xmlns="http://www.w3.org/2000/svg">
<path d="M84.375 11.7188H15.625C13.4766 11.7188 11.7188 13.4766 11.7188 15.625V28.125C11.7188 30.2734 13.4766 32.0312 15.625 32.0312H26.2305L26.4648 32.2656L30.6836 36.5039C30.8398 36.6602 31.0352 36.7383 31.2305 36.7383C31.4258 36.7383 31.6406 36.6602 31.7773 36.5039L35.9961 32.2656L36.2305 32.0312H84.375C86.5234 32.0312 88.2812 30.2734 88.2812 28.125V15.625C88.2812 13.4766 86.5234 11.7188 84.375 11.7188ZM86.7188 28.125C86.7188 29.4141 85.6641 30.4687 84.375 30.4687H35.9375C35.7227 30.4687 35.5273 30.5469 35.3906 30.7031L31.8164 34.2969L31.2695 34.8437L30.7227 34.2969L27.1484 30.7031C26.9922 30.5469 26.7969 30.4687 26.6016 30.4687H15.625C14.3359 30.4687 13.2812 29.4141 13.2812 28.125V15.625C13.2812 14.3359 14.3359 13.2812 15.625 13.2812H84.375C85.6641 13.2812 86.7188 14.3359 86.7188 15.625V28.125Z" fill="white"/>
<path d="M78.9062 21.875C78.9062 22.3047 78.5547 22.6562 78.125 22.6562H21.875C21.4453 22.6562 21.0938 22.3047 21.0938 21.875C21.0938 21.4453 21.4453 21.0938 21.875 21.0938H78.125C78.5547 21.0938 78.9062 21.4453 78.9062 21.875Z" fill="white"/>
<path d="M87.5 86.7188H83.5938V75C83.5938 69.043 80.0391 63.6719 74.5508 61.3477L73.2227 60.7813L74.4141 59.9805C76.6602 58.457 78.1836 56.1719 78.7109 53.4961C79.2188 50.8398 78.6719 48.125 77.168 45.8789C75.2734 43.0664 72.1289 41.4062 68.7305 41.4062C66.6992 41.4062 64.7461 42.0117 63.0664 43.1445C60.8203 44.668 59.2969 46.9727 58.7695 49.6289C58.2617 52.2852 58.8086 55 60.3125 57.2461C61.0547 58.3398 61.9727 59.2578 63.0469 59.9805L64.2383 60.7813L62.9102 61.3477C57.4609 63.6719 53.9062 69.043 53.9062 75V86.7188H46.0938V75C46.0938 69.043 42.5391 63.6719 37.0508 61.3477L35.7227 60.7813L36.9141 59.9805C39.1602 58.457 40.6836 56.1719 41.2109 53.4961C41.7188 50.8398 41.1719 48.125 39.668 45.8789C37.7734 43.0664 34.6289 41.4062 31.2305 41.4062C29.1992 41.4062 27.2461 42.0117 25.5664 43.1445C20.918 46.2695 19.6875 52.5977 22.832 57.2461C23.5742 58.3398 24.4922 59.2578 25.5664 59.9805L26.7578 60.7813L25.4297 61.3477C19.9609 63.6719 16.4062 69.043 16.4062 75V86.7188H12.5C12.0703 86.7188 11.7188 87.0703 11.7188 87.5C11.7188 87.9297 12.0703 88.2812 12.5 88.2812H87.5C87.9297 88.2812 88.2812 87.9297 88.2812 87.5C88.2812 87.0703 87.9297 86.7188 87.5 86.7188ZM22.6562 51.5625C22.6562 46.8164 26.5039 42.9688 31.25 42.9688C35.9961 42.9688 39.8438 46.8164 39.8438 51.5625C39.8438 56.3086 35.9961 60.1562 31.25 60.1562C26.5234 60.1562 22.6562 56.2891 22.6562 51.5625ZM44.5312 86.7188H17.9688V75C17.9688 67.6758 23.9258 61.7188 31.25 61.7188C38.5742 61.7188 44.5312 67.6758 44.5312 75V86.7188ZM60.1562 51.5625C60.1562 46.8164 64.0039 42.9688 68.75 42.9688C73.4961 42.9688 77.3438 46.8164 77.3438 51.5625C77.3438 56.3086 73.4961 60.1562 68.75 60.1562C64.0234 60.1562 60.1562 56.2891 60.1562 51.5625ZM82.0312 86.7188H55.4688V75C55.4688 67.6758 61.4258 61.7188 68.75 61.7188C76.0742 61.7188 82.0312 67.6758 82.0312 75V86.7188Z" fill="white"/>
</svg>
