<svg width="100" height="100" viewBox="0 0 100 100" fill="none" xmlns="http://www.w3.org/2000/svg">
<path d="M82.2266 40.7227V35.9375C82.2266 33.6719 80.3906 31.8359 78.125 31.8359H63.4766V26.5625C63.4766 22.5781 60.2344 19.3359 56.25 19.3359H43.75C39.7656 19.3359 36.5234 22.5781 36.5234 26.5625V31.8359H21.875C19.6094 31.8359 17.7734 33.6719 17.7734 35.9375V40.7227C17.7734 42.5391 18.6523 44.2578 20.1367 45.3125L20.4102 45.5078L20.3906 45.8398L18.3008 72.8906C17.9883 76.8555 20.9766 80.3516 24.9609 80.6445C25.1367 80.6641 25.332 80.6641 25.5078 80.6641H74.5117C78.4961 80.6641 81.7383 77.4219 81.7383 73.4375C81.7383 73.2422 81.7383 73.0664 81.7188 72.8906L79.6289 45.8398L79.6094 45.5078L79.8828 45.3125C81.3477 44.2383 82.2266 42.5391 82.2266 40.7227ZM38.7891 24.8047C39.5313 22.7148 41.5234 21.2891 43.7305 21.2891H56.2305C58.457 21.2891 60.4492 22.7148 61.1914 24.8047L61.4648 25.5859H38.5156L38.7891 24.8047ZM38.4766 27.5391H61.5234V31.8359H38.4766V27.5391ZM79.7461 73.0273C79.8633 74.4336 79.4141 75.8008 78.4961 76.8555C77.5781 77.9297 76.3086 78.5742 74.9023 78.6719C74.7656 78.6719 74.6289 78.6914 74.5117 78.6914H25.4883C22.5781 78.6914 20.2148 76.3281 20.2148 73.418C20.2148 73.2812 20.2148 73.1445 20.2344 73.0078L22.2266 47.2266L22.2852 46.3867L23.0469 46.7383L45.5469 56.8555L45.8984 57.0117V60.918C45.8984 63.1836 47.7344 65.0195 50 65.0195C52.2656 65.0195 54.1016 63.1836 54.1016 60.918V57.0117L54.4531 56.8555L76.9531 46.7578L77.7148 46.4063L77.7734 47.2461L79.7461 73.0273ZM47.8516 60.9375V54.6875C47.8516 53.4961 48.8086 52.5391 50 52.5391C51.1914 52.5391 52.1484 53.4961 52.1484 54.6875V60.9375C52.1484 62.1289 51.1914 63.0859 50 63.0859C48.8086 63.0859 47.8516 62.1289 47.8516 60.9375ZM78.0859 44.1016L54.8633 54.5508L54.1406 54.8633L54.043 54.082C53.7695 52.0703 52.0312 50.5664 50 50.5664C49.8047 50.5664 49.6094 50.5859 49.4336 50.6055C47.6367 50.8594 46.2109 52.2852 45.957 54.082L45.8594 54.8633L45.1367 54.5508L21.9141 44.1016C20.5859 43.4961 19.7266 42.168 19.7266 40.7227V35.9375C19.7266 34.7461 20.6836 33.7891 21.875 33.7891H78.125C79.3164 33.7891 80.2734 34.7461 80.2734 35.9375V40.7227C80.2734 42.1875 79.4141 43.5156 78.0859 44.1016Z" fill="#D423FD"/>
</svg>
