<svg width="100" height="100" viewBox="0 0 100 100" fill="none" xmlns="http://www.w3.org/2000/svg">
<path d="M84.375 13.0859H15.625C13.3594 13.0859 11.5234 14.9219 11.5234 17.1875V67.1875C11.5234 69.4531 13.3594 71.2891 15.625 71.2891H42.7734V78.7109H34.375C32.1094 78.7109 30.2734 80.5469 30.2734 82.8125C30.2734 85.0781 32.1094 86.9141 34.375 86.9141H65.625C67.8906 86.9141 69.7266 85.0781 69.7266 82.8125C69.7266 80.5469 67.8906 78.7109 65.625 78.7109H57.2266V71.2891H84.375C86.6406 71.2891 88.4766 69.4531 88.4766 67.1875V17.1875C88.4766 14.9219 86.6406 13.0859 84.375 13.0859ZM65.625 80.6641C66.8164 80.6641 67.7734 81.6211 67.7734 82.8125C67.7734 84.0039 66.8164 84.9609 65.625 84.9609H34.375C33.1836 84.9609 32.2266 84.0039 32.2266 82.8125C32.2266 81.6211 33.1836 80.6641 34.375 80.6641H43.75C44.2969 80.6641 44.7266 80.2344 44.7266 79.6875V71.2891H55.2734V79.6875C55.2734 80.2344 55.7031 80.6641 56.25 80.6641H65.625ZM86.5234 67.1875C86.5234 68.3789 85.5664 69.3359 84.375 69.3359H15.625C14.4336 69.3359 13.4766 68.3789 13.4766 67.1875V17.1875C13.4766 15.9961 14.4336 15.0391 15.625 15.0391H84.375C85.5664 15.0391 86.5234 15.9961 86.5234 17.1875V67.1875Z" fill="#6D07CB"/>
<path d="M81.25 19.3359H18.75C18.2031 19.3359 17.7734 19.7656 17.7734 20.3125V57.8125C17.7734 58.3594 18.2031 58.7891 18.75 58.7891H81.25C81.7969 58.7891 82.2266 58.3594 82.2266 57.8125V20.3125C82.2266 19.7656 81.7969 19.3359 81.25 19.3359ZM80.2734 56.8359H19.7266V21.2891H80.2734V56.8359Z" fill="#6D07CB"/>
<path d="M25 65.0391C25.5393 65.0391 25.9766 64.6018 25.9766 64.0625C25.9766 63.5232 25.5393 63.0859 25 63.0859C24.4607 63.0859 24.0234 63.5232 24.0234 64.0625C24.0234 64.6018 24.4607 65.0391 25 65.0391Z" fill="#6D07CB"/>
<path d="M27.5391 32.8125V45.3125C27.5391 45.8594 27.1094 46.2891 26.5625 46.2891C26.0156 46.2891 25.5859 45.8594 25.5859 45.3125V32.8125C25.5859 32.2656 26.0156 31.8359 26.5625 31.8359C27.1094 31.8359 27.5391 32.2656 27.5391 32.8125Z" fill="#6D07CB"/>
<path d="M40.625 31.8359C37.5 31.8359 34.9609 35.0781 34.9609 39.0625C34.9609 43.0469 37.5 46.2891 40.625 46.2891C43.75 46.2891 46.2891 43.0469 46.2891 39.0625C46.2891 35.0781 43.75 31.8359 40.625 31.8359ZM40.625 44.3359C38.5742 44.3359 36.9141 41.9727 36.9141 39.0625C36.9141 36.1523 38.5742 33.7891 40.625 33.7891C42.6758 33.7891 44.3359 36.1523 44.3359 39.0625C44.3359 41.9727 42.6758 44.3359 40.625 44.3359Z" fill="#6D07CB"/>
<path d="M55.6641 32.8125V45.3125C55.6641 45.8594 55.2344 46.2891 54.6875 46.2891C54.1406 46.2891 53.7109 45.8594 53.7109 45.3125V32.8125C53.7109 32.2656 54.1406 31.8359 54.6875 31.8359C55.2344 31.8359 55.6641 32.2656 55.6641 32.8125Z" fill="#6D07CB"/>
<path d="M68.75 31.8359C65.625 31.8359 63.0859 35.0781 63.0859 39.0625C63.0859 43.0469 65.625 46.2891 68.75 46.2891C71.875 46.2891 74.4141 43.0469 74.4141 39.0625C74.4141 35.0781 71.875 31.8359 68.75 31.8359ZM68.75 44.3359C66.6992 44.3359 65.0391 41.9727 65.0391 39.0625C65.0391 36.1523 66.6992 33.7891 68.75 33.7891C70.8008 33.7891 72.4609 36.1523 72.4609 39.0625C72.4609 41.9727 70.8008 44.3359 68.75 44.3359Z" fill="#6D07CB"/>
</svg>
