<svg width="100" height="100" viewBox="0 0 100 100" fill="none" xmlns="http://www.w3.org/2000/svg">
<path d="M78.5742 26.1133C72.207 19.7266 63.7109 16.2109 54.6875 16.2109H45.3125C36.2891 16.2109 27.793 19.7266 21.4258 26.1133C15.0391 32.4805 11.5234 40.9766 11.5234 50C11.5234 59.0234 15.0391 67.5195 21.4258 73.8867C27.793 80.2734 36.2891 83.7891 45.3125 83.7891H54.6875C63.7109 83.7891 72.207 80.2734 78.5742 73.8867C84.9609 67.5195 88.4766 59.0234 88.4766 50C88.4766 40.9766 84.9609 32.4805 78.5742 26.1133ZM26.2891 24.5312C30.0195 21.7188 34.4141 19.7461 38.9844 18.8086L43.2031 17.9492L39.375 19.9023C36.5039 21.3672 33.8672 23.2227 31.5234 25.4297L31.3477 25.5859H24.8828L26.2891 24.5312ZM17.7734 34.082C19.1016 31.7773 20.7422 29.6289 22.5977 27.7148L22.7734 27.5391H29.4141L28.6133 28.4961C27.0508 30.3906 25.6836 32.4805 24.5508 34.668L24.3945 34.9805H24.043C23.9648 34.9805 23.8867 34.9609 23.8477 34.9609H17.2852L17.7734 34.082ZM13.5547 48.418C13.7305 44.5703 14.6094 40.8203 16.1523 37.2656L16.3086 36.9141H23.5352L23.2227 37.7148C21.875 41.1523 21.1133 44.7656 20.9375 48.457L20.918 49.0234H13.5352L13.5547 48.418ZM16.1523 62.7344C14.6094 59.1992 13.7305 55.4492 13.5547 51.582L13.5352 50.9766H20.918L20.9375 51.543C21.0937 55.2344 21.875 58.8477 23.2227 62.2852L23.5352 63.0859H16.3086L16.1523 62.7344ZM22.6172 72.2852C20.7422 70.3711 19.1211 68.2227 17.793 65.918L17.2852 65.0391H24.4531L24.6094 65.3516C25.7227 67.5391 27.0898 69.6094 28.6523 71.5039L29.4336 72.4609H22.793L22.6172 72.2852ZM38.9844 81.1914C34.4141 80.2539 30.0195 78.2617 26.2891 75.4688L24.8828 74.4141H30.957C30.9961 74.4141 31.0352 74.3945 31.0742 74.3945L31.3281 74.375L31.5039 74.5508C33.8477 76.7578 36.4844 78.6328 39.3555 80.0977L43.2031 82.0508L38.9844 81.1914ZM54.6875 81.8359C37.1289 81.8359 22.8516 67.5586 22.8516 50C22.8516 32.4414 37.1289 18.1641 54.6875 18.1641C72.2461 18.1641 86.5234 32.4414 86.5234 50C86.5039 67.5391 72.2266 81.8164 54.6875 81.8359Z" fill="#6D07CB"/>
<path d="M58.047 48.9258H58.0275C57.1681 48.6133 56.465 48.3594 55.8595 48.125L55.4884 47.9883V36.2109L56.1525 36.3086C57.4806 36.5039 58.7502 37.0313 59.8048 37.8516H59.8244L59.8439 37.8711C60.0197 38.0273 60.2541 38.1055 60.4884 38.1055C60.7619 38.1055 61.0353 37.9883 61.2306 37.7734C61.5627 37.3828 61.5431 36.7969 61.1916 36.4453C59.7267 35.2344 57.9298 34.4922 56.0353 34.2969L55.508 34.2383V31.25C55.508 30.7031 55.0588 30.2734 54.5314 30.2734C53.9845 30.2734 53.5549 30.7031 53.5549 31.25V34.3359L53.047 34.4141C49.8634 34.8633 47.383 37.2852 46.8361 40.4492V40.4687V40.4883C46.3088 42.793 47.09 45.1758 48.8673 46.6992C50.1955 47.6953 51.6603 48.5156 53.1838 49.1406L53.5549 49.2969V63.5156H52.9689C50.9572 63.4961 48.965 62.8125 47.3439 61.6211C47.1877 61.5234 47.0119 61.4648 46.8166 61.4648C46.4845 61.4648 46.172 61.6211 45.9963 61.9141C45.8595 62.1289 45.8009 62.4023 45.8595 62.6562C45.9181 62.9102 46.0549 63.125 46.2892 63.2812H46.3088L46.3283 63.3008C48.2814 64.7266 50.5666 65.4883 52.9884 65.5078H53.5744V68.75C53.5744 69.2969 54.0041 69.7266 54.5509 69.7266C55.0978 69.7266 55.5275 69.2969 55.5275 68.75V65.4102L56.0158 65.332C59.8634 64.707 62.8517 61.7187 63.4767 57.8711C64.1994 53.9258 61.8752 50.0977 58.047 48.9258ZM53.5353 47.1289L52.6955 46.7383C51.758 46.3086 50.8791 45.7617 50.0588 45.1562L50.0392 45.1367L50.0002 45.1172C48.8088 44.0234 48.3205 42.3633 48.7306 40.8008C49.0822 38.6523 50.6642 36.9336 52.8127 36.4648L53.5353 36.3086V47.1289ZM61.5236 57.5586C61.0548 60.3516 58.9845 62.6172 56.2111 63.3008L55.4884 63.4766V50.0586L56.2697 50.3516C56.6017 50.4687 56.9728 50.6055 57.3634 50.7422C60.3127 51.6211 62.1095 54.5313 61.5236 57.5586Z" fill="#6D07CB"/>
<path d="M82.1094 50C82.1094 50.5469 81.6602 50.9766 81.1328 50.9766C80.5859 50.9766 80.1562 50.5469 80.1562 50C80.1367 35.9766 68.7109 24.5508 54.6875 24.5312C54.1406 24.5312 53.7109 24.1016 53.7109 23.5547C53.7109 23.0078 54.1406 22.5781 54.6875 22.5781C62.0117 22.5781 68.8867 25.4492 74.0625 30.625C79.2383 35.8008 82.0898 42.6758 82.1094 50Z" fill="#6D07CB"/>
<path d="M55.6641 76.4453C55.6641 76.9922 55.2344 77.4219 54.6875 77.4219C47.3633 77.4219 40.4883 74.5508 35.3125 69.375C30.1367 64.1992 27.2852 57.3242 27.2656 50C27.2656 49.4531 27.7148 49.0234 28.2422 49.0234C28.7891 49.0234 29.2188 49.4531 29.2188 50C29.2383 64.0234 40.6641 75.4492 54.6875 75.4688C55.2344 75.4688 55.6641 75.8984 55.6641 76.4453Z" fill="#6D07CB"/>
</svg>
