<svg width="100" height="100" viewBox="0 0 100 100" fill="none" xmlns="http://www.w3.org/2000/svg">
<path d="M56.2109 31.3086L55.1172 30.957L56.0547 30.293C58.3008 28.6719 59.7852 26.2891 60.2148 23.5547C60.6641 20.8203 60.0195 18.0859 58.3984 15.8398C56.4648 13.1445 53.3203 11.543 49.9805 11.543C47.793 11.543 45.7227 12.2266 43.9453 13.4961C41.6992 15.1172 40.2148 17.5 39.7852 20.2344C39.3359 22.9687 39.9805 25.7031 41.6016 27.9492C42.2461 28.8477 43.0469 29.6484 43.9453 30.293L44.8828 30.957L43.7891 31.3086C35.7031 33.9844 30.2734 41.5039 30.2734 50C30.2734 50.5469 30.7031 50.9766 31.25 50.9766H68.75C69.2969 50.9766 69.7266 50.5273 69.7266 50C69.7266 41.5039 64.2969 33.9844 56.2109 31.3086ZM41.6016 21.875C41.6016 17.2461 45.3711 13.4766 50 13.4766C54.6289 13.4766 58.3984 17.2461 58.3984 21.875C58.3984 26.5039 54.6289 30.2734 50 30.2734C45.3711 30.2734 41.6016 26.5234 41.6016 21.875ZM32.168 49.0234L32.2266 48.3789C33.0664 39.1602 40.6836 32.2266 49.9219 32.2266H50H50.0781C59.3359 32.2266 66.9336 39.1797 67.7734 48.3789L67.832 49.0234H32.168Z" fill="#6D07CB"/>
<path d="M88.3203 54.8242C87.6367 51.4648 84.668 49.043 81.25 49.043C77.832 49.043 74.8437 51.4648 74.1602 54.8242L74.0625 55.293H65.625C65.0781 55.293 64.6484 55.7227 64.6484 56.2695C64.6484 62.6172 59.4726 67.793 53.125 67.793H46.875C40.5273 67.793 35.3516 62.6172 35.3516 56.2695C35.3516 55.7227 34.9219 55.293 34.375 55.293H25.918L25.8203 54.8242C25.1562 51.4648 22.168 49.0234 18.75 49.0234C18.2617 49.0234 17.7734 49.082 17.3047 49.1797C13.3984 49.9805 10.8789 53.8086 11.6797 57.7148C12.3633 61.0547 15.332 63.4766 18.75 63.4766C19.2383 63.4766 19.7266 63.418 20.1953 63.3203C23.0469 62.7344 25.2539 60.5273 25.8398 57.6953L25.9375 57.2266H33.4375L33.4961 57.7539C34.2578 64.5703 40.0195 69.7266 46.875 69.7266H49.0234V74.082L48.5547 74.1797C44.6484 74.9805 42.1289 78.8086 42.9297 82.7148C43.6133 86.0742 46.582 88.4961 50 88.4961C50.4883 88.4961 50.9766 88.4375 51.4453 88.3398C53.3398 87.9492 54.9609 86.8555 56.0351 85.2539C57.1094 83.6328 57.4805 81.7188 57.0898 79.8242C56.5039 76.9727 54.2969 74.7656 51.4648 74.1797L50.9961 74.082V69.7266H53.1445C60.0195 69.7266 65.7617 64.5703 66.5234 57.7539L66.582 57.2266H74.082L74.1797 57.6953C74.8633 61.0352 77.832 63.4766 81.25 63.4766C81.7383 63.4766 82.2266 63.418 82.6953 63.3203C84.5898 62.9297 86.2109 61.8359 87.2851 60.2344C88.3398 58.6328 88.7109 56.6992 88.3203 54.8242ZM18.75 61.5234C15.8398 61.5234 13.4766 59.1602 13.4766 56.25C13.4766 53.3398 15.8398 50.9766 18.75 50.9766C21.6601 50.9766 24.0234 53.3398 24.0234 56.25C24.0234 59.1602 21.6601 61.5234 18.75 61.5234ZM55.2734 81.25C55.2734 84.1602 52.9101 86.5234 50 86.5234C47.0898 86.5234 44.7266 84.1602 44.7266 81.25C44.7266 78.3398 47.0898 75.9766 50 75.9766C52.9101 75.9766 55.2734 78.3594 55.2734 81.25ZM81.25 61.5234C78.3398 61.5234 75.9766 59.1602 75.9766 56.25C75.9766 53.3398 78.3398 50.9766 81.25 50.9766C84.1601 50.9766 86.5234 53.3398 86.5234 56.25C86.5234 59.1602 84.1601 61.5234 81.25 61.5234Z" fill="#6D07CB"/>
</svg>
