<svg width="100" height="100" viewBox="0 0 100 100" fill="none" xmlns="http://www.w3.org/2000/svg">
<path d="M84.375 11.5234H56.25C55.7031 11.5234 55.2734 11.9531 55.2734 12.5V44.3359H50.9766V40.625C50.9766 34.9219 46.3281 30.2734 40.625 30.2734H37.4414L38.4766 29.2773C40.4492 27.3437 41.5625 24.7656 41.6016 21.9922C41.6406 19.2383 40.5859 16.6211 38.6523 14.6289C36.6992 12.6172 34.0625 11.5039 31.25 11.5039C28.5352 11.5039 25.957 12.5586 24.0234 14.4531C19.9414 18.4375 19.8633 25 23.8477 29.1016C23.9062 29.1602 23.9648 29.2187 24.0234 29.2773L25.0586 30.2734H21.875C16.1719 30.2734 11.5234 34.9219 11.5234 40.625V56.25C11.5234 58.5156 13.3594 60.3516 15.625 60.3516H20.8984V84.375C20.8984 86.6406 22.7344 88.4766 25 88.4766H37.5C39.7656 88.4766 41.6016 86.6406 41.6016 84.375V53.457L42.5391 54.1797C43.7695 55.1367 45.3125 55.6641 46.875 55.6641H55.2734V87.5C55.2734 88.0469 55.7031 88.4766 56.25 88.4766C56.7969 88.4766 57.2266 88.0273 57.2266 87.5V41.6016H84.375C86.6406 41.6016 88.4766 39.7656 88.4766 37.5V15.625C88.4766 13.3789 86.6406 11.5234 84.375 11.5234ZM22.8516 21.875C22.8516 17.2461 26.6211 13.4766 31.25 13.4766C35.8789 13.4766 39.6484 17.2461 39.6484 21.875C39.6484 26.5039 35.8789 30.2734 31.25 30.2734C26.6211 30.2734 22.8516 26.5039 22.8516 21.875ZM55.2734 53.7109H46.875C43.9648 53.7109 41.6016 51.3477 41.6016 48.4375V42.1875C41.6016 41.6406 41.1719 41.2109 40.625 41.2109C40.0781 41.2109 39.6484 41.6406 39.6484 42.1875V84.375C39.6484 85.5664 38.6914 86.5234 37.5 86.5234H32.2266V64.0625C32.2266 63.5156 31.7969 63.0859 31.25 63.0859C30.7031 63.0859 30.2734 63.5156 30.2734 64.0625V86.5234H25C23.8086 86.5234 22.8516 85.5664 22.8516 84.375V42.1875C22.8516 41.6406 22.4219 41.2109 21.875 41.2109C21.3281 41.2109 20.8984 41.6406 20.8984 42.1875V58.3984H15.625C14.4336 58.3984 13.4766 57.4414 13.4766 56.25V40.625C13.4766 35.9961 17.2461 32.2266 21.875 32.2266H40.625C45.2539 32.2266 49.0234 35.9961 49.0234 40.625V45.3125C49.0234 45.8594 49.4531 46.2891 50 46.2891H55.2734V53.7109ZM86.5234 37.5C86.5234 38.6914 85.5664 39.6484 84.375 39.6484H57.2266V13.4766H84.375C85.5664 13.4766 86.5234 14.4336 86.5234 15.625V37.5Z" fill="#6D07CB"/>
</svg>
