<svg width="100" height="100" viewBox="0 0 100 100" fill="none" xmlns="http://www.w3.org/2000/svg">
<mask id="path-1-outside-1" maskUnits="userSpaceOnUse" x="10.7188" y="10.7188" width="78" height="78" fill="black">
<rect fill="#6D07CB" x="10.7188" y="10.7188" width="78" height="78"/>
<path d="M88.0469 49.4531L73.9844 35.3906C73.8281 35.2344 73.6328 35.1562 73.4375 35.1562C73.2422 35.1562 73.0273 35.2344 72.8906 35.3906C72.7344 35.5469 72.6562 35.7422 72.6562 35.9375V39.8438H60.1562V27.3438H64.0625C64.2773 27.3438 64.4727 27.2656 64.6094 27.1094C64.7656 26.9531 64.8438 26.7578 64.8438 26.5625C64.8438 26.3672 64.7656 26.1523 64.6094 26.0156L50.5469 11.9531C50.3906 11.7969 50.1953 11.7188 50 11.7188C49.8047 11.7188 49.5898 11.7969 49.4531 11.9531L35.3906 26.0156C35.0781 26.3281 35.0781 26.8164 35.3906 27.1289C35.5469 27.2852 35.7422 27.3633 35.9375 27.3633H39.8438V39.8633H27.3438V35.957C27.3438 35.5273 26.9922 35.1758 26.5625 35.1758C26.3477 35.1758 26.1523 35.2539 26.0156 35.4102L11.9531 49.4727C11.6406 49.7852 11.6406 50.2734 11.9531 50.5859L26.0156 64.6484C26.1719 64.8047 26.3672 64.8828 26.5625 64.8828C26.7578 64.8828 26.9727 64.8047 27.1094 64.6484C27.2656 64.4922 27.3438 64.2969 27.3438 64.1016V60.1953H41.4453L41.6797 60.5273C42.4023 61.5625 43.3008 62.4609 44.3555 63.1641L45.5273 63.9453L44.2383 64.5117C38.6914 66.9922 35.1172 72.5391 35.1562 78.6328V84.375C35.1562 86.5234 36.9141 88.2812 39.0625 88.2812H60.9375C63.0859 88.2812 64.8438 86.5234 64.8438 84.375V78.125C64.8438 72.168 61.3086 66.7969 55.8008 64.4727L54.4727 63.9063L55.6641 63.1055C56.6992 62.4023 57.5977 61.5234 58.3008 60.4883L58.5352 60.1562H72.6562V64.0625C72.6562 64.4922 73.0078 64.8438 73.4375 64.8438C73.6523 64.8438 73.8477 64.7656 73.9844 64.6094L88.0469 50.5469C88.3594 50.2539 88.3594 49.7461 88.0469 49.4531ZM59.082 68.4375C61.7578 70.9375 63.3008 74.4727 63.2812 78.125V84.375C63.2812 85.6641 62.2266 86.7188 60.9375 86.7188H39.0625C37.7734 86.7188 36.7188 85.6641 36.7188 84.375V78.6133C36.6016 71.5234 42.0312 65.4883 49.1016 64.8828C49.3945 64.8633 49.707 64.8438 50 64.8438H50.0391C53.418 64.8438 56.6211 66.1133 59.082 68.4375ZM50 63.2812C45.2539 63.2812 41.4062 59.4336 41.4062 54.6875C41.4062 49.9414 45.2539 46.0938 50 46.0938C54.7461 46.0938 58.5938 49.9414 58.5938 54.6875C58.5938 59.4141 54.7266 63.2812 50 63.2812ZM85.8398 50.5469L75.5469 60.8398L74.2188 62.168V59.375C74.2188 58.9453 73.8672 58.5938 73.4375 58.5938H59.4141L59.7266 57.5781C60.5078 54.9805 60.2344 52.2266 58.9648 49.8438C57.6758 47.4414 55.5469 45.7031 52.9492 44.9219C51.9922 44.6289 50.9961 44.4922 50 44.4922C47.8711 44.4922 45.7422 45.1953 44.0039 46.4453C42.207 47.7539 40.918 49.5703 40.2734 51.6992C39.6875 53.6328 39.6875 55.6641 40.2734 57.5781L40.5859 58.5938H26.5625C26.1328 58.5938 25.7812 58.9453 25.7812 59.375V62.168L24.4531 60.8398L14.1602 50.5469L13.6133 50L14.1602 49.4531L24.4531 39.1602L25.7812 37.832V40.625C25.7812 41.0547 26.1328 41.4062 26.5625 41.4062H40.625C41.0547 41.4062 41.4062 41.0547 41.4062 40.625V26.5625C41.4062 26.1328 41.0547 25.7812 40.625 25.7812H37.832L39.1602 24.4531L49.4531 14.1602L50 13.6133L50.5469 14.1602L60.8398 24.4531L62.168 25.7812H59.375C58.9453 25.7812 58.5938 26.1328 58.5938 26.5625V40.625C58.5938 41.0547 58.9453 41.4062 59.375 41.4062H73.4375C73.8672 41.4062 74.2188 41.0547 74.2188 40.625V37.832L75.5469 39.1602L85.8398 49.4531L86.3867 50L85.8398 50.5469Z"/>
</mask>
<path d="M88.0469 49.4531L73.9844 35.3906C73.8281 35.2344 73.6328 35.1562 73.4375 35.1562C73.2422 35.1562 73.0273 35.2344 72.8906 35.3906C72.7344 35.5469 72.6562 35.7422 72.6562 35.9375V39.8438H60.1562V27.3438H64.0625C64.2773 27.3438 64.4727 27.2656 64.6094 27.1094C64.7656 26.9531 64.8438 26.7578 64.8438 26.5625C64.8438 26.3672 64.7656 26.1523 64.6094 26.0156L50.5469 11.9531C50.3906 11.7969 50.1953 11.7188 50 11.7188C49.8047 11.7188 49.5898 11.7969 49.4531 11.9531L35.3906 26.0156C35.0781 26.3281 35.0781 26.8164 35.3906 27.1289C35.5469 27.2852 35.7422 27.3633 35.9375 27.3633H39.8438V39.8633H27.3438V35.957C27.3438 35.5273 26.9922 35.1758 26.5625 35.1758C26.3477 35.1758 26.1523 35.2539 26.0156 35.4102L11.9531 49.4727C11.6406 49.7852 11.6406 50.2734 11.9531 50.5859L26.0156 64.6484C26.1719 64.8047 26.3672 64.8828 26.5625 64.8828C26.7578 64.8828 26.9727 64.8047 27.1094 64.6484C27.2656 64.4922 27.3438 64.2969 27.3438 64.1016V60.1953H41.4453L41.6797 60.5273C42.4023 61.5625 43.3008 62.4609 44.3555 63.1641L45.5273 63.9453L44.2383 64.5117C38.6914 66.9922 35.1172 72.5391 35.1562 78.6328V84.375C35.1562 86.5234 36.9141 88.2812 39.0625 88.2812H60.9375C63.0859 88.2812 64.8438 86.5234 64.8438 84.375V78.125C64.8438 72.168 61.3086 66.7969 55.8008 64.4727L54.4727 63.9063L55.6641 63.1055C56.6992 62.4023 57.5977 61.5234 58.3008 60.4883L58.5352 60.1562H72.6562V64.0625C72.6562 64.4922 73.0078 64.8438 73.4375 64.8438C73.6523 64.8438 73.8477 64.7656 73.9844 64.6094L88.0469 50.5469C88.3594 50.2539 88.3594 49.7461 88.0469 49.4531ZM59.082 68.4375C61.7578 70.9375 63.3008 74.4727 63.2812 78.125V84.375C63.2812 85.6641 62.2266 86.7188 60.9375 86.7188H39.0625C37.7734 86.7188 36.7188 85.6641 36.7188 84.375V78.6133C36.6016 71.5234 42.0312 65.4883 49.1016 64.8828C49.3945 64.8633 49.707 64.8438 50 64.8438H50.0391C53.418 64.8438 56.6211 66.1133 59.082 68.4375ZM50 63.2812C45.2539 63.2812 41.4062 59.4336 41.4062 54.6875C41.4062 49.9414 45.2539 46.0938 50 46.0938C54.7461 46.0938 58.5938 49.9414 58.5938 54.6875C58.5938 59.4141 54.7266 63.2812 50 63.2812ZM85.8398 50.5469L75.5469 60.8398L74.2188 62.168V59.375C74.2188 58.9453 73.8672 58.5938 73.4375 58.5938H59.4141L59.7266 57.5781C60.5078 54.9805 60.2344 52.2266 58.9648 49.8438C57.6758 47.4414 55.5469 45.7031 52.9492 44.9219C51.9922 44.6289 50.9961 44.4922 50 44.4922C47.8711 44.4922 45.7422 45.1953 44.0039 46.4453C42.207 47.7539 40.918 49.5703 40.2734 51.6992C39.6875 53.6328 39.6875 55.6641 40.2734 57.5781L40.5859 58.5938H26.5625C26.1328 58.5938 25.7812 58.9453 25.7812 59.375V62.168L24.4531 60.8398L14.1602 50.5469L13.6133 50L14.1602 49.4531L24.4531 39.1602L25.7812 37.832V40.625C25.7812 41.0547 26.1328 41.4062 26.5625 41.4062H40.625C41.0547 41.4062 41.4062 41.0547 41.4062 40.625V26.5625C41.4062 26.1328 41.0547 25.7812 40.625 25.7812H37.832L39.1602 24.4531L49.4531 14.1602L50 13.6133L50.5469 14.1602L60.8398 24.4531L62.168 25.7812H59.375C58.9453 25.7812 58.5938 26.1328 58.5938 26.5625V40.625C58.5938 41.0547 58.9453 41.4062 59.375 41.4062H73.4375C73.8672 41.4062 74.2188 41.0547 74.2188 40.625V37.832L75.5469 39.1602L85.8398 49.4531L86.3867 50L85.8398 50.5469Z" fill="#6D07CB"/>
<path d="M88.0469 49.4531L73.9844 35.3906C73.8281 35.2344 73.6328 35.1562 73.4375 35.1562C73.2422 35.1562 73.0273 35.2344 72.8906 35.3906C72.7344 35.5469 72.6562 35.7422 72.6562 35.9375V39.8438H60.1562V27.3438H64.0625C64.2773 27.3438 64.4727 27.2656 64.6094 27.1094C64.7656 26.9531 64.8438 26.7578 64.8438 26.5625C64.8438 26.3672 64.7656 26.1523 64.6094 26.0156L50.5469 11.9531C50.3906 11.7969 50.1953 11.7188 50 11.7188C49.8047 11.7188 49.5898 11.7969 49.4531 11.9531L35.3906 26.0156C35.0781 26.3281 35.0781 26.8164 35.3906 27.1289C35.5469 27.2852 35.7422 27.3633 35.9375 27.3633H39.8438V39.8633H27.3438V35.957C27.3438 35.5273 26.9922 35.1758 26.5625 35.1758C26.3477 35.1758 26.1523 35.2539 26.0156 35.4102L11.9531 49.4727C11.6406 49.7852 11.6406 50.2734 11.9531 50.5859L26.0156 64.6484C26.1719 64.8047 26.3672 64.8828 26.5625 64.8828C26.7578 64.8828 26.9727 64.8047 27.1094 64.6484C27.2656 64.4922 27.3438 64.2969 27.3438 64.1016V60.1953H41.4453L41.6797 60.5273C42.4023 61.5625 43.3008 62.4609 44.3555 63.1641L45.5273 63.9453L44.2383 64.5117C38.6914 66.9922 35.1172 72.5391 35.1562 78.6328V84.375C35.1562 86.5234 36.9141 88.2812 39.0625 88.2812H60.9375C63.0859 88.2812 64.8438 86.5234 64.8438 84.375V78.125C64.8438 72.168 61.3086 66.7969 55.8008 64.4727L54.4727 63.9063L55.6641 63.1055C56.6992 62.4023 57.5977 61.5234 58.3008 60.4883L58.5352 60.1562H72.6562V64.0625C72.6562 64.4922 73.0078 64.8438 73.4375 64.8438C73.6523 64.8438 73.8477 64.7656 73.9844 64.6094L88.0469 50.5469C88.3594 50.2539 88.3594 49.7461 88.0469 49.4531ZM59.082 68.4375C61.7578 70.9375 63.3008 74.4727 63.2812 78.125V84.375C63.2812 85.6641 62.2266 86.7188 60.9375 86.7188H39.0625C37.7734 86.7188 36.7188 85.6641 36.7188 84.375V78.6133C36.6016 71.5234 42.0312 65.4883 49.1016 64.8828C49.3945 64.8633 49.707 64.8438 50 64.8438H50.0391C53.418 64.8438 56.6211 66.1133 59.082 68.4375ZM50 63.2812C45.2539 63.2812 41.4062 59.4336 41.4062 54.6875C41.4062 49.9414 45.2539 46.0938 50 46.0938C54.7461 46.0938 58.5938 49.9414 58.5938 54.6875C58.5938 59.4141 54.7266 63.2812 50 63.2812ZM85.8398 50.5469L75.5469 60.8398L74.2188 62.168V59.375C74.2188 58.9453 73.8672 58.5938 73.4375 58.5938H59.4141L59.7266 57.5781C60.5078 54.9805 60.2344 52.2266 58.9648 49.8438C57.6758 47.4414 55.5469 45.7031 52.9492 44.9219C51.9922 44.6289 50.9961 44.4922 50 44.4922C47.8711 44.4922 45.7422 45.1953 44.0039 46.4453C42.207 47.7539 40.918 49.5703 40.2734 51.6992C39.6875 53.6328 39.6875 55.6641 40.2734 57.5781L40.5859 58.5938H26.5625C26.1328 58.5938 25.7812 58.9453 25.7812 59.375V62.168L24.4531 60.8398L14.1602 50.5469L13.6133 50L14.1602 49.4531L24.4531 39.1602L25.7812 37.832V40.625C25.7812 41.0547 26.1328 41.4062 26.5625 41.4062H40.625C41.0547 41.4062 41.4062 41.0547 41.4062 40.625V26.5625C41.4062 26.1328 41.0547 25.7812 40.625 25.7812H37.832L39.1602 24.4531L49.4531 14.1602L50 13.6133L50.5469 14.1602L60.8398 24.4531L62.168 25.7812H59.375C58.9453 25.7812 58.5938 26.1328 58.5938 26.5625V40.625C58.5938 41.0547 58.9453 41.4062 59.375 41.4062H73.4375C73.8672 41.4062 74.2188 41.0547 74.2188 40.625V37.832L75.5469 39.1602L85.8398 49.4531L86.3867 50L85.8398 50.5469Z" stroke="#6D07CB" stroke-width="0.4" mask="url(#path-1-outside-1)"/>
</svg>
