<svg width="100" height="100" viewBox="0 0 100 100" fill="none" xmlns="http://www.w3.org/2000/svg">
<path d="M82.0699 40.8789C82.0113 40.7617 81.8745 40.625 81.7378 40.5469L50.4878 21.7969C50.3316 21.6992 50.1558 21.6602 49.98 21.6602C49.8042 21.6602 49.6284 21.7187 49.4722 21.7969L18.2222 40.5469C17.773 40.8203 17.6167 41.4258 17.8902 41.8945C17.9878 42.0508 18.0855 42.168 18.2027 42.207H18.2222L25.273 46.4453L25.5659 46.6211V61.7188C25.5659 61.9727 25.6636 62.207 25.8394 62.4023C28.0074 64.707 30.4488 66.6992 33.105 68.3203L33.3784 68.4961V77.3438C33.3784 77.8906 33.8081 78.3203 34.355 78.3203C34.9019 78.3203 35.3316 77.8906 35.3316 77.3438V69.5703L36.1714 69.9609C40.4878 71.9922 45.2534 73.0664 49.98 73.0664C59.1402 73.0469 67.9292 69.1602 74.1206 62.4023C74.2964 62.207 74.3941 61.9727 74.3941 61.7188V46.6406L74.687 46.4648L81.7378 42.2266C81.9722 42.0898 82.1284 41.875 82.187 41.6211C82.2456 41.3672 82.2066 41.1133 82.0699 40.8789ZM33.398 66.2109L32.48 65.5664C30.7808 64.375 29.1792 63.0078 27.7144 61.5039L27.5386 61.3281V47.8125L28.4175 48.3398L33.105 51.1523L33.398 51.3281V66.2109ZM72.4605 61.3281L72.3042 61.5039C66.523 67.5781 58.398 71.0742 49.9995 71.0938C44.9995 71.0938 40.0386 69.8438 35.6636 67.4805L35.3511 67.3242V52.5L36.23 53.0273L49.4917 60.9766C49.648 61.0742 49.8238 61.1133 49.9995 61.1133C50.1753 61.1133 50.3511 61.0742 50.5074 60.9766L71.5816 48.3398L72.4605 47.8125V61.3281ZM78.5152 41.9141L50.2925 58.8477L49.9995 59.0234L49.7066 58.8477L37.1089 51.2891L36.2691 50.7813L37.1089 50.2734L50.5074 42.2461C50.7222 42.1094 50.898 41.8945 50.9566 41.6406C51.0152 41.3867 50.9761 41.1328 50.8394 40.8984C50.6636 40.6055 50.3511 40.4297 49.9995 40.4297C49.8238 40.4297 49.648 40.4883 49.4917 40.5664L34.687 49.4531L34.3941 49.6289L34.1011 49.4531L21.4839 41.9141L20.6441 41.4063L21.4839 40.8984L49.7066 23.9648L49.9995 23.7891L50.2925 23.9648L78.5152 40.8984L79.355 41.4063L78.5152 41.9141Z" fill="#D423FD"/>
</svg>
