<svg width="100" height="100" viewBox="0 0 100 100" fill="none" xmlns="http://www.w3.org/2000/svg">
<path d="M78.125 78.7109H50.9766V69.3164L51.7383 69.5703L54.5508 70.4687C56.6797 71.1523 58.8672 71.5039 61.0742 71.5039C65.5469 71.5039 69.8437 70.1172 73.4961 67.5C77.2266 64.8242 79.9219 61.1133 81.3477 56.7383C82.3633 53.5547 80.6055 50.1172 77.4219 49.1016C75.3125 48.4375 73.125 48.0859 70.9375 48.0859C63.0078 48.0859 55.7813 52.4414 52.0898 59.4531L50.9766 61.5234V47.832L51.5234 47.793C61.5039 46.9531 68.9453 38.1641 68.1055 28.1836C67.7148 23.6133 65.6445 19.3945 62.2656 16.3086C58.9062 13.2031 54.5508 11.5234 50.0195 11.5234C49.5117 11.5234 48.9844 11.543 48.4766 11.582C38.4961 12.4219 31.0547 21.2109 31.8945 31.1914C32.2461 35.4688 34.1211 39.4922 37.1484 42.5195C40.1758 45.5469 44.1992 47.4219 48.4766 47.7734L49.0234 47.8125V61.5234L47.9102 59.4336C44.2188 52.4219 36.9922 48.0664 29.0625 48.0664C26.8555 48.0664 24.6875 48.418 22.5781 49.082C19.3945 50.1172 17.6367 53.5352 18.6523 56.7188C20.0586 61.0938 22.7734 64.8242 26.5039 67.5C30.1562 70.1172 34.4531 71.5039 38.9258 71.5039C41.1328 71.5039 43.3203 71.1523 45.4492 70.4687L48.2617 69.5703L49.0234 69.3164V78.7109H21.875C19.6094 78.7109 17.7734 80.5469 17.7734 82.8125V84.375C17.7734 86.6406 19.6094 88.4766 21.875 88.4766H78.125C80.3906 88.4766 82.2266 86.6406 82.2266 84.375V82.8125C82.2266 80.5664 80.3906 78.7109 78.125 78.7109ZM51.4063 66.7773L52.4805 63.418C55.0781 55.4102 62.4805 50 70.8984 50C72.9102 50 74.8828 50.3125 76.8164 50.9375C77.8711 51.2695 78.7109 51.9922 79.2188 52.9688C79.7266 53.9453 79.8047 55.0586 79.4727 56.1133C76.875 64.1406 69.4727 69.5312 61.0547 69.5312C59.0625 69.5312 57.0703 69.2188 55.1367 68.5938L51.7773 67.5L51.2109 67.3242L51.4063 66.7773ZM48.2227 67.5195L44.8633 68.6133C42.9492 69.2383 40.957 69.5508 38.9453 69.5508C30.5273 69.5508 23.125 64.1602 20.5273 56.1328C20.1953 55.0781 20.2734 53.9648 20.7813 52.9883C21.2891 52.0117 22.1289 51.2891 23.1836 50.9375C25.1172 50.3125 27.1094 50 29.1016 50C37.5195 50 44.9219 55.3906 47.5195 63.418L48.5938 66.7773L48.7695 67.3437L48.2227 67.5195ZM25.5859 86.5234H21.875C20.6836 86.5234 19.7266 85.5664 19.7266 84.375V82.8125C19.7266 81.6211 20.6836 80.6641 21.875 80.6641H25.5859V86.5234ZM36.5234 86.5234H27.5391V80.6641H36.5234V86.5234ZM49.0234 86.5234H38.4766V80.6641H49.0234V86.5234ZM33.7891 29.6875C33.7891 20.7422 41.0547 13.4766 50 13.4766C58.9453 13.4766 66.2109 20.7422 66.2109 29.6875C66.2109 38.6328 58.9453 45.8984 50 45.8984C41.0742 45.8984 33.7891 38.6328 33.7891 29.6875ZM61.5234 86.5234H50.9766V80.6641H61.5234V86.5234ZM72.4609 86.5234H63.4766V80.6641H72.4609V86.5234ZM80.2734 84.375C80.2734 85.5664 79.3164 86.5234 78.125 86.5234H74.4141V80.6641H78.125C79.3164 80.6641 80.2734 81.6211 80.2734 82.8125V84.375Z" fill="#D423FD"/>
<path d="M52.0903 28.6914H52.0708C51.8754 28.6328 51.6997 28.5547 51.5044 28.4766L51.2504 28.3789L50.8598 28.2422V22.0313L51.6411 22.3242C52.0122 22.4609 52.3637 22.6563 52.6762 22.9102L52.6958 22.9297L52.7153 22.9492C52.8911 23.1055 53.1254 23.2031 53.3598 23.2031C53.6333 23.2031 53.9067 23.0859 54.102 22.8711C54.4536 22.4805 54.434 21.8945 54.0434 21.5234C53.2622 20.8789 52.3247 20.4492 51.3286 20.2539L50.8598 20.1563V18.7891C50.8598 18.2422 50.4106 17.8125 49.8833 17.8125C49.3364 17.8125 48.9067 18.2422 48.9067 18.7891V20.2344L48.4575 20.3516C48.3989 20.3711 48.3403 20.3711 48.2817 20.3906C48.2426 20.3906 48.2231 20.4102 48.2036 20.4102C46.5239 20.9375 45.2934 22.3438 45.0005 24.082V24.1016V24.1211C44.6684 25.6055 45.1762 27.1484 46.3286 28.1445C47.0122 28.6523 47.7739 29.1016 48.5551 29.4336L48.9067 29.5898V37.2656L48.2231 37.1484C47.3833 37.0117 46.5825 36.6797 45.8989 36.1719C45.7426 36.0742 45.5669 36.0352 45.3911 36.0352C45.059 36.0352 44.7465 36.2109 44.5708 36.4844C44.2778 36.9336 44.4145 37.5195 44.8442 37.8125H44.8637C45.8989 38.5547 47.0903 39.0039 48.3598 39.1211L48.8872 39.1602V40.6641C48.8872 41.2109 49.3169 41.6406 49.8637 41.6406C50.4106 41.6406 50.8403 41.2109 50.8403 40.6641V39.0625L51.27 38.9453C53.4379 38.3789 55.0786 36.582 55.4692 34.375C55.9379 31.875 54.4731 29.4531 52.0903 28.6914ZM48.9067 27.4609L47.9887 26.8555C47.9301 26.8164 47.8911 26.7969 47.8325 26.7578C47.7348 26.6992 47.6176 26.6211 47.52 26.543L47.4809 26.5234L47.4614 26.5039C46.9145 25.957 46.7192 25.1367 46.9145 24.3945C47.0512 23.7109 47.4223 23.1055 47.9497 22.6758L48.9067 21.9141V27.4609ZM53.5747 34.043C53.3793 35.1563 52.7153 36.1133 51.7583 36.6797L50.8794 37.1875V30.332L51.6606 30.625C53.0278 31.1328 53.8481 32.5977 53.5747 34.043Z" fill="#D423FD"/>
</svg>
