<svg width="100" height="100" viewBox="0 0 100 100" fill="none" xmlns="http://www.w3.org/2000/svg">
<path d="M50 37.3047C43.0078 37.3047 37.3047 43.0078 37.3047 50C37.3047 56.9922 43.0078 62.6953 50 62.6953C56.9922 62.6953 62.6953 56.9922 62.6953 50C62.6953 43.0078 56.9922 37.3047 50 37.3047ZM50 60.7422C44.082 60.7422 39.2578 55.918 39.2578 50C39.2578 44.082 44.082 39.2578 50 39.2578C55.918 39.2578 60.7422 44.082 60.7422 50C60.7422 55.918 55.918 60.7422 50 60.7422Z" fill="#6D07CB"/>
<path d="M65.6055 34.3945C61.4453 30.2344 55.8984 27.9297 50 27.9297C44.1016 27.9297 38.5547 30.2344 34.3945 34.3945C30.2344 38.5547 27.9297 44.1016 27.9297 50C27.9297 55.8984 30.2344 61.4453 34.3945 65.6055C38.5547 69.7656 44.1016 72.0703 50 72.0703C55.8984 72.0703 61.4258 69.7656 65.6055 65.6055C69.7656 61.4453 72.0703 55.8984 72.0703 50C72.0703 44.1016 69.7656 38.5547 65.6055 34.3945ZM50 70.1172C38.9062 70.1172 29.8828 61.0938 29.8828 50C29.8828 38.9062 38.9062 29.8828 50 29.8828C61.0742 29.9023 70.0977 38.9258 70.1172 50C70.1172 61.0938 61.0937 70.1172 50 70.1172Z" fill="#6D07CB"/>
<path d="M87.1483 57.5977C85.4491 56.7773 84.0429 55.3711 83.2226 53.6719C82.246 51.6406 82.1093 49.3555 82.8515 47.2266C83.5937 45.0977 85.1171 43.3984 87.1483 42.4219C87.5585 42.2266 87.7733 41.7773 87.6757 41.3281C86.7187 37.1289 85.0585 33.1445 82.7733 29.4922C82.5976 29.1992 82.2851 29.043 81.953 29.043C81.8358 29.043 81.7382 29.0625 81.6405 29.1016C80.7421 29.4141 79.8046 29.5703 78.8476 29.5703C77.8905 29.5703 76.953 29.4141 76.0546 29.082C71.6991 27.5391 69.3944 22.7344 70.9374 18.3789C71.0937 17.9492 70.9179 17.4805 70.5273 17.2461C66.8749 14.9609 62.8905 13.3008 58.6913 12.3438C58.6132 12.3242 58.5351 12.3242 58.4765 12.3242C58.1054 12.3242 57.7538 12.5391 57.5976 12.8711C56.2108 15.7617 53.2421 17.6367 50.0194 17.6367H49.9804C46.7773 17.6367 43.789 15.7617 42.4023 12.8711C42.246 12.5391 41.8944 12.3242 41.5234 12.3242C41.4452 12.3242 41.3671 12.3242 41.3085 12.3438C37.1093 13.3008 33.1249 14.9414 29.4921 17.2461C29.1015 17.5 28.9452 17.9687 29.0819 18.3984C29.7265 20.1953 29.7265 22.1875 29.0819 23.9844C27.8905 27.3242 24.7265 29.5703 21.1718 29.5703C20.2148 29.5703 19.2773 29.4141 18.3788 29.082C18.2812 29.043 18.164 29.0234 18.0663 29.0234C17.7343 29.0234 17.4218 29.1992 17.246 29.4727C14.9609 33.125 13.3007 37.1094 12.3437 41.3086C12.246 41.7578 12.4609 42.207 12.871 42.4023C15.7616 43.7891 17.6366 46.7773 17.6366 50C17.6366 53.2227 15.7812 56.1914 12.871 57.5977C12.4609 57.793 12.246 58.2422 12.3437 58.6914C13.2812 62.8906 14.9413 66.875 17.2265 70.5078C17.4023 70.8008 17.7148 70.9766 18.0468 70.9766C18.164 70.9766 18.2616 70.957 18.3593 70.918C19.2577 70.6055 20.1952 70.4297 21.1523 70.4297C22.1093 70.4297 23.0468 70.5859 23.9452 70.918C28.3007 72.4609 30.6054 77.2656 29.0624 81.6211C28.9062 82.0508 29.0819 82.5195 29.4726 82.7539C33.1249 85.0391 37.1093 86.6992 41.3085 87.6562C41.3866 87.6758 41.4648 87.6758 41.5234 87.6758C41.8944 87.6758 42.246 87.4609 42.4023 87.1289C43.2226 85.4297 44.6288 84.0234 46.328 83.2031C47.4804 82.6367 48.7108 82.3633 49.9804 82.3633C53.203 82.3633 56.1718 84.2383 57.578 87.1289C57.7343 87.4609 58.0858 87.6758 58.4569 87.6758C58.5351 87.6758 58.6132 87.6758 58.6718 87.6562C62.871 86.6992 66.8554 85.0391 70.5077 82.7539C70.8983 82.5195 71.0546 82.0312 70.9179 81.6016C70.2733 79.8047 70.2733 77.8125 70.9179 76.0156C72.1093 72.6758 75.2733 70.4297 78.828 70.4297C79.7851 70.4297 80.7226 70.5859 81.621 70.918C81.7187 70.957 81.8163 70.9766 81.9335 70.9766C82.2655 70.9766 82.578 70.8008 82.7538 70.5273C85.039 66.875 86.6991 62.8906 87.6562 58.6914C87.7733 58.2422 87.5585 57.793 87.1483 57.5977ZM85.4882 59.3945C84.6483 62.5781 83.3788 65.625 81.7382 68.457L81.5233 68.8281L81.1132 68.7305C80.371 68.5547 79.6093 68.4766 78.8476 68.4766C78.0858 68.4766 77.3241 68.5547 76.5819 68.7305C71.0155 69.9805 67.5194 75.5273 68.7694 81.0742L68.8671 81.4844L68.496 81.6992C65.664 83.3594 62.5976 84.6289 59.4335 85.4688L59.0234 85.5859L58.789 85.2148C56.8944 82.207 53.6327 80.4102 50.078 80.4102H49.9999C46.4452 80.4102 43.1835 82.207 41.289 85.2148L41.0546 85.5859L40.6444 85.4688C37.4609 84.6289 34.414 83.3594 31.5819 81.6992L31.2109 81.4844L31.3085 81.0742C31.6405 79.5898 31.6405 78.0273 31.3085 76.543C30.8007 74.2383 29.4921 72.168 27.6366 70.7031C25.8202 69.2578 23.5351 68.4766 21.2304 68.4766C20.4687 68.4766 19.7069 68.5547 18.9452 68.7305L18.5351 68.8281L18.3202 68.457C16.6601 65.625 15.3905 62.5781 14.5507 59.3945L14.4335 58.9844L14.8046 58.75C17.8319 56.8359 19.6288 53.5742 19.6093 50C19.6288 46.4258 17.8319 43.1445 14.8046 41.25L14.4335 41.0156L14.5507 40.6055C15.3905 37.4219 16.6601 34.375 18.3202 31.543L18.5351 31.1719L18.9452 31.2695C19.6874 31.4453 20.4491 31.5234 21.2109 31.5234C21.9726 31.5234 22.7343 31.4453 23.4765 31.2695C26.1718 30.6641 28.4569 29.043 29.9413 26.7188C31.4062 24.3945 31.8944 21.6211 31.289 18.9258L31.1913 18.5156L31.5624 18.3008C34.3944 16.6406 37.4413 15.3711 40.6249 14.5313L41.0351 14.4141L41.2694 14.7852C43.164 17.793 46.4257 19.5898 49.9804 19.5898H50.0585C53.6132 19.5898 56.8749 17.793 58.7694 14.7852L59.0038 14.4141L59.414 14.5313C62.5976 15.3711 65.6444 16.6406 68.4765 18.3008L68.8476 18.5156L68.7499 18.9453C68.4179 20.4297 68.4179 21.9922 68.7499 23.4766C69.2577 25.7812 70.5663 27.8516 72.4218 29.3164C74.2382 30.7617 76.5233 31.543 78.828 31.543C79.5898 31.543 80.3515 31.4648 81.1132 31.2891L81.5233 31.1914L81.7382 31.5625C83.3983 34.3945 84.6679 37.4414 85.4882 40.625L85.6054 41.0352L85.2538 41.2695C83.9843 42.0703 82.8905 43.1836 82.0702 44.4531C80.5858 46.7969 80.0976 49.5703 80.6835 52.2852C81.289 55 82.9101 57.3047 85.2343 58.7891L85.5858 59.0234L85.4882 59.3945Z" fill="#6D07CB"/>
</svg>
