<svg width="100" height="100" viewBox="0 0 100 100" fill="none" xmlns="http://www.w3.org/2000/svg">
<path d="M74.9805 18.5547C74.8633 18.5547 74.7266 18.5742 74.6094 18.6328L43.6328 31.0156L43.5547 31.0547H21.875C19.9414 31.0547 18.3008 32.3828 17.8711 34.2578L17.8125 34.5313L17.5586 34.6484L12.0508 37.4023C11.7187 37.5586 11.5039 37.9102 11.5039 38.2812V50.7812C11.5039 51.1523 11.7187 51.4844 12.0508 51.6602L17.5586 54.4141L17.8125 54.5313L17.8711 54.8047C18.3008 56.6797 19.9414 58.0078 21.875 58.0078H24.2578L24.375 58.4375L29.6875 78.3984C30.1758 80.1953 31.7969 81.4453 33.6523 81.4453H39.6875C41.9531 81.4453 43.7891 79.6094 43.7891 77.3438C43.7891 76.9922 43.75 76.6211 43.6523 76.2891L38.9648 58.75L38.7695 58.0078H43.5547L43.6523 58.0469L74.6289 70.4297C74.7461 70.4688 74.8633 70.5078 75 70.5078C75.4102 70.5078 75.7617 70.2734 75.8984 69.8828C75.9375 69.7656 75.9766 69.6484 75.9766 69.5117V19.5312C75.957 18.9844 75.5273 18.5547 74.9805 18.5547ZM17.7539 52.3242L13.457 50.1758V38.8867L13.7891 38.7305L16.9141 37.168L17.7539 36.7383V52.3242ZM41.7383 76.7969C41.8945 77.3438 41.8164 77.9297 41.5234 78.4375C41.2305 78.9258 40.7812 79.2773 40.2148 79.4336C40.0391 79.4727 39.8633 79.5117 39.668 79.5117H33.6328C32.6562 79.5117 31.8164 78.8477 31.5625 77.9102L26.4453 58.75L26.25 58.0078H36.7383L36.8555 58.4375L41.7383 76.7969ZM42.7539 56.0547H21.8555C20.6641 56.0547 19.707 55.0977 19.707 53.9062V51.7578H31.2305C31.7773 51.7578 32.207 51.3281 32.207 50.7812C32.207 50.2344 31.7773 49.8047 31.2305 49.8047H19.707V45.5078H31.2305C31.7773 45.5078 32.207 45.0781 32.207 44.5312C32.207 43.9844 31.7773 43.5547 31.2305 43.5547H19.707V39.2578H31.2305C31.7773 39.2578 32.207 38.8281 32.207 38.2812C32.207 37.7344 31.7773 37.3047 31.2305 37.3047H19.707V35.1562C19.707 33.9648 20.6641 33.0078 21.8555 33.0078H42.7539V56.0547ZM74.0039 68.0859L73.2031 67.7734L45.0781 56.5234L44.707 56.3672V32.6953L45.0781 32.5391L73.2031 21.2891L74.0039 20.9766V68.0859Z" fill="#D423FD"/>
<path d="M88.4375 25.4297C88.6328 25.9375 88.3789 26.5039 87.8711 26.6797L81.6211 29.1797L81.5625 29.1992C81.4648 29.2383 81.3672 29.2383 81.2695 29.2383C80.8789 29.2383 80.5078 29.0039 80.3711 28.6133C80.2734 28.3789 80.2734 28.1055 80.3711 27.8711C80.4688 27.6367 80.6641 27.4414 80.8984 27.3437L87.1484 24.8437C87.168 24.8437 87.168 24.8437 87.1875 24.8242C87.3047 24.7852 87.4219 24.7656 87.5391 24.7656C87.9102 24.8047 88.2813 25.0586 88.4375 25.4297Z" fill="#D423FD"/>
<path d="M88.418 63.6719C88.2617 64.043 87.9102 64.2773 87.5195 64.2773C87.3828 64.2773 87.2656 64.2578 87.1289 64.1992L80.8789 61.6992C80.6445 61.6016 80.4492 61.4063 80.3516 61.1719C80.2539 60.9375 80.2539 60.6641 80.3516 60.4297C80.5078 60.0586 80.8594 59.8242 81.25 59.8242C81.3672 59.8242 81.5039 59.8438 81.6211 59.9023L87.5 62.2461V62.2656L87.8711 62.4023C87.8906 62.4023 87.8906 62.4219 87.9102 62.4219C88.1445 62.5195 88.3398 62.7148 88.4375 62.9492C88.5156 63.1836 88.5156 63.4375 88.418 63.6719Z" fill="#D423FD"/>
<path d="M88.457 44.5312C88.457 45.0781 88.0273 45.5078 87.4805 45.5078H81.2305C80.6836 45.5078 80.2539 45.0781 80.2539 44.5312C80.2539 43.9844 80.6836 43.5547 81.2305 43.5547H87.4805C88.0273 43.5547 88.457 43.9844 88.457 44.5312Z" fill="#D423FD"/>
</svg>
