<svg width="100"  height="100" viewBox="0 0 100 100" fill="none" xmlns="http://www.w3.org/2000/svg">
<path d="M44.1016 65.5664C42.1484 62.7148 39.4336 60.5273 36.2305 59.2578L35.1367 58.8281L36.1328 58.2227C41.7969 54.7852 43.5938 47.3828 40.1563 41.7187C39.0625 39.9219 37.5195 38.4375 35.6836 37.4414C33.9062 36.4648 31.8945 35.957 29.8828 35.957C27.6953 35.957 25.5273 36.5625 23.6523 37.7148C17.9883 41.1523 16.1914 48.5547 19.6289 54.2187C20.625 55.8398 22.0117 57.2461 23.6523 58.2227L24.6484 58.8281L23.5547 59.2578C20.3516 60.5273 17.6172 62.7148 15.6836 65.5664C13.7305 68.418 12.6953 71.7578 12.6953 75.2148V91.4258C12.6953 91.9727 13.125 92.4023 13.6719 92.4023H46.0938C46.6406 92.4023 47.0703 91.9727 47.0703 91.4258V75.2148C47.0703 71.7578 46.0352 68.418 44.1016 65.5664ZM19.8242 47.9687C19.8242 42.4219 24.3359 37.9102 29.8828 37.9102C35.4297 37.9102 39.9414 42.4219 39.9414 47.9687C39.9414 53.5156 35.4297 58.0273 29.8828 58.0273C24.3359 58.0273 19.8242 53.5156 19.8242 47.9687ZM33.2422 65.4492L33.1055 65.8398H26.6797L26.543 65.4492L25.1172 61.3867L24.9219 60.8008L25.5078 60.625C26.9336 60.1953 28.3984 59.9805 29.9023 59.9805C31.4063 59.9805 32.8711 60.1953 34.2969 60.625L34.8828 60.8008L34.6875 61.3867L33.2422 65.4492ZM33.3398 80.2734L33.0273 80.4687L30.1953 82.2656L29.8828 82.4609L29.5703 82.2656L26.7383 80.4687L26.4258 80.2734L26.4648 79.9023L27.7344 68.3008L27.793 67.7734H31.9531L32.0117 68.3008L33.2812 79.9023L33.3398 80.2734ZM45.1172 90.4492H14.6484V75.2148C14.6484 69.6875 17.6562 64.5898 22.5 61.8945L23.1055 61.5625L23.3398 62.2266L25.0586 67.1484C25.1367 67.3633 25.293 67.5391 25.4883 67.6562L25.8398 67.8516L25.8008 68.2422L24.4336 80.7031C24.3945 81.0742 24.5703 81.4453 24.8828 81.6406L29.375 84.4727C29.5312 84.5703 29.707 84.6289 29.9023 84.6289C30.0977 84.6289 30.2734 84.5703 30.4297 84.4727L34.9219 81.6406C35.2344 81.4453 35.4102 81.0742 35.3711 80.7031L34.0039 68.2617L33.9648 67.8711L34.3164 67.6758C34.5117 67.5586 34.668 67.3828 34.7461 67.168L36.4648 62.2656L36.6992 61.6016L37.3047 61.9336C42.1484 64.6094 45.1562 69.7266 45.1562 75.2539V89.9023V90.4492H45.1172Z" fill="#6D07CB"/>
<path d="M82.4609 34.9414C81.3086 33.8086 79.3555 32.1875 76.6016 30.9766C76.4453 30.8984 76.3867 30.8789 76.3086 30.8203L75.6641 30.293L76.3672 29.8633C82.0312 26.4258 83.8281 19.0234 80.3906 13.3594C79.2969 11.5625 77.7539 10.0977 75.918 9.08203C74.1406 8.10547 72.1289 7.59766 70.1172 7.59766C67.9297 7.59766 65.7617 8.20312 63.8867 9.35547C58.2227 12.793 56.4258 20.1953 59.8633 25.8594C60.8594 27.4805 62.2461 28.8867 63.8867 29.8633L64.8828 30.4688L63.7891 30.8984C60.5859 32.168 57.8516 34.3555 55.918 37.207C53.9844 40.0586 52.9492 43.3984 52.9492 46.8555V63.0664C52.9492 63.6133 53.3789 64.043 53.9258 64.043H86.3477C86.8945 64.043 87.3242 63.6133 87.3242 63.0664V46.8555C87.3047 42.168 85.6836 38.1445 82.4609 34.9414ZM60.0586 19.6289C60.0586 14.082 64.5703 9.57031 70.1172 9.57031C75.6641 9.57031 80.1758 14.082 80.1758 19.6289C80.1758 25.1758 75.6641 29.6875 70.1172 29.6875C64.5703 29.6875 60.0586 25.1758 60.0586 19.6289ZM73.4766 37.1094L73.3398 37.5H66.9141L66.7773 37.1094L65.3516 33.0469L65.1562 32.4609L65.7422 32.2852C67.168 31.8555 68.6328 31.6406 70.1367 31.6406C71.6406 31.6406 73.1055 31.8555 74.5312 32.2852L75.1172 32.4609L74.9219 33.0469L73.4766 37.1094ZM73.5742 51.9336L73.2617 52.1289L70.4297 53.9258L70.1172 54.1211L69.8047 53.9258L66.9727 52.1289L66.6602 51.9336L66.6992 51.5625L67.9687 39.9609L68.0273 39.4336H72.1875L72.2461 39.9609L73.5156 51.5625L73.5742 51.9336ZM85.3516 62.1094H54.8828V46.875C54.8828 41.3477 57.8906 36.25 62.7344 33.5547L63.3398 33.2227L63.5742 33.8867L65.293 38.8086C65.3711 39.0234 65.5273 39.1992 65.7227 39.3164L66.0742 39.5117L66.0352 39.9023L64.668 52.3633C64.6289 52.7344 64.8047 53.1055 65.1172 53.3008L69.6094 56.1328C69.7656 56.2305 69.9414 56.2891 70.1367 56.2891C70.332 56.2891 70.5078 56.2305 70.6641 56.1328L75.1562 53.3008C75.4687 53.1055 75.6445 52.7344 75.6055 52.3633L74.2383 39.9219L74.1992 39.5313L74.5508 39.3359C74.7461 39.2188 74.9023 39.043 74.9805 38.8281L76.6992 33.9258L76.9336 33.2617L77.5391 33.5938C82.3828 36.2695 85.3906 41.3672 85.3906 46.9141V62.1094H85.3516Z" fill="#6D07CB"/>
<path d="M71.1328 80.8008H53.9258C53.3789 80.8008 52.9492 80.3711 52.9492 79.8242C52.9492 79.2774 53.3789 78.8477 53.9258 78.8477H69.1797V66.2695C69.1797 65.7227 69.6094 65.293 70.1562 65.293C70.7031 65.293 71.1328 65.7227 71.1328 66.2695V80.8008Z" fill="#6D07CB"/>
<path d="M58.3984 85.2734C58.1445 85.2734 57.8906 85.1758 57.7148 84.9805L52.5391 79.8242L57.6953 74.668C58.0859 74.2773 58.6914 74.2773 59.082 74.668C59.4727 75.0586 59.4727 75.6641 59.082 76.0547L55.3125 79.8242L59.082 83.5938C59.4727 83.9844 59.4727 84.5899 59.082 84.9805C58.8867 85.1758 58.6328 85.2734 58.3984 85.2734Z" fill="#6D07CB"/>
<path d="M28.9062 17.4414H46.1133C46.6602 17.4414 47.0898 17.8711 47.0898 18.418C47.0898 18.9648 46.6602 19.3945 46.1133 19.3945H30.8594V31.9727C30.8594 32.5195 30.4297 32.9492 29.8828 32.9492C29.3359 32.9492 28.9062 32.5195 28.9062 31.9727V17.4414Z" fill="#6D07CB"/>
<path d="M41.6602 12.9688C41.9141 12.9688 42.168 13.0664 42.3438 13.2617L47.5 18.418L42.3438 23.5742C41.9531 23.9648 41.3477 23.9648 40.957 23.5742C40.5664 23.1836 40.5664 22.5781 40.957 22.1875L44.7266 18.418L40.9766 14.6484C40.5859 14.2578 40.5859 13.6523 40.9766 13.2617C41.1523 13.0664 41.4063 12.9688 41.6602 12.9688Z" fill="#6D07CB"/>
</svg>

