<svg width="100" height="100" viewBox="0 0 100 100" fill="none" xmlns="http://www.w3.org/2000/svg">
<path d="M87.5 44.3359H83.7305L83.6914 43.7891C83.3008 36.6016 80.293 29.8633 75.2148 24.7852C70.1367 19.707 63.3789 16.6992 56.2109 16.3086L55.6641 16.2695V12.5C55.6641 11.9531 55.2344 11.5234 54.6875 11.5234H45.3125C44.7656 11.5234 44.3359 11.9531 44.3359 12.5V16.2695L43.7891 16.3086C36.6016 16.6992 29.8633 19.707 24.7852 24.7852C19.707 29.8633 16.6992 36.6211 16.3086 43.7891L16.2695 44.3359H12.5C11.9531 44.3359 11.5234 44.7656 11.5234 45.3125V54.6875C11.5234 55.2344 11.9531 55.6641 12.5 55.6641H21.875C22.4219 55.6641 22.8516 55.2344 22.8516 54.6875V45.3125C22.8516 44.7656 22.4219 44.3359 21.875 44.3359H18.2031L18.2422 43.7109C19.0625 30 30.0195 19.0625 43.7109 18.2422L44.3359 18.2031V21.875C44.3359 22.4219 44.7656 22.8516 45.3125 22.8516H48.3594L47.8906 23.7109L28.8281 58.9062C28.6719 59.1797 28.6719 59.5313 28.8086 59.8047L36.4453 75.0977L36.5039 75.2148V87.5C36.5039 88.0469 36.9336 88.4766 37.4805 88.4766H62.4805C63.0273 88.4766 63.457 88.0469 63.457 87.5V75.2344L63.5156 75.1172L71.1719 59.8242C71.3086 59.5508 71.3086 59.1992 71.1523 58.9258L52.0703 23.7305L51.6016 22.8711H54.6875C55.2344 22.8711 55.6641 22.4414 55.6641 21.8945V18.2031L56.2891 18.2422C70 19.0625 80.9375 30.0195 81.7578 43.7109L81.7969 44.3359H78.125C77.5781 44.3359 77.1484 44.7656 77.1484 45.3125V54.6875C77.1484 55.2344 77.5781 55.6641 78.125 55.6641H87.5C88.0469 55.6641 88.4766 55.2344 88.4766 54.6875V45.3125C88.4766 44.7656 88.0469 44.3359 87.5 44.3359ZM20.8984 46.2891V53.7109H13.4766V46.2891H20.8984ZM61.5234 86.5234H38.4766V75.9766H61.5234V86.5234ZM52.0703 27.7539L69.0625 59.1211L69.2188 59.3945L69.082 59.668L62.0703 73.7109L61.9141 74.043H38.1055L37.9492 73.7109L30.9375 59.668L30.8008 59.3945L30.957 59.1211L47.9492 27.7539L49.043 25.7227V49.0625L48.5742 49.1602C46.6797 49.5508 45.0586 50.6445 43.9844 52.2656C42.9102 53.8672 42.5391 55.8008 42.9297 57.6953C43.6133 61.0547 46.582 63.4766 50 63.4766C50.4883 63.4766 50.9766 63.418 51.4453 63.3203C53.3398 62.9297 54.9609 61.8359 56.0352 60.2344C57.1094 58.6328 57.4805 56.6992 57.0898 54.8047C56.5039 51.9531 54.2969 49.7461 51.4648 49.1602L50.9961 49.0625V25.7227L52.0703 27.7539ZM50 50.9766C52.9102 50.9766 55.2734 53.3398 55.2734 56.25C55.2734 59.1602 52.9102 61.5234 50 61.5234C47.0898 61.5234 44.7266 59.1602 44.7266 56.25C44.7266 53.3398 47.0898 50.9766 50 50.9766ZM53.7109 20.8984H46.2891V13.4766H53.7109V20.8984ZM86.5234 53.7109H79.1016V46.2891H86.5234V53.7109Z" fill="#6D07CB"/>
</svg>
