<svg width="100" height="100" viewBox="0 0 100 100" fill="none" xmlns="http://www.w3.org/2000/svg">
<path d="M26.5234 55.0391L26.25 54.6875L26.5234 54.3359L36.7188 41.2109L36.7383 41.1914V41.1719C36.7578 41.1328 36.7969 41.1133 36.8164 41.0742C36.9727 40.8594 37.0117 40.6055 36.9727 40.332C36.9336 40.0586 36.7773 39.8438 36.5625 39.707C36.4062 39.5898 36.2109 39.5312 36.0156 39.5312C35.6836 39.5312 35.3906 39.6875 35.1953 39.9609V39.9805L35.1562 40.0391L24.2188 54.1016C23.9453 54.4531 23.9453 54.9414 24.2188 55.293L35.1562 69.3359C35.3516 69.5312 35.6055 69.6484 35.8789 69.6484C36.0742 69.6484 36.2695 69.5898 36.4258 69.4727C36.6406 69.3164 36.7969 69.1016 36.8359 68.8477C36.8945 68.5938 36.8359 68.3398 36.6992 68.125L26.5234 55.0391ZM55.0781 39.6875C54.9805 39.6484 54.8633 39.6289 54.7656 39.6289C54.3359 39.6289 53.9648 39.9023 53.8281 40.293L44.4531 68.418C44.2773 68.9258 44.5508 69.4922 45.0586 69.668C45.1562 69.707 45.2734 69.7266 45.3711 69.7266C45.8008 69.7266 46.1719 69.4531 46.3086 69.0625L55.6836 40.9375C55.8594 40.4297 55.5859 39.8633 55.0781 39.6875ZM75.7617 54.1016L64.8438 40.0391C64.6484 39.8438 64.3945 39.7266 64.1211 39.7266C63.9258 39.7266 63.7305 39.7852 63.5742 39.9023C63.3594 40.0586 63.2031 40.2734 63.1641 40.5273C63.1055 40.7812 63.1641 41.0352 63.3008 41.25L73.4766 54.3359L73.75 54.6875L73.4766 55.0391L63.2812 68.1641C62.9492 68.5938 63.0273 69.1992 63.457 69.5312C63.6328 69.668 63.8281 69.7266 64.043 69.7266C64.5703 69.7266 64.5898 69.7266 66.9922 66.543C68.6133 64.4531 71.2695 60.9375 75.7812 55.2734C76.0352 54.9219 76.0352 54.4336 75.7617 54.1016ZM75.7617 54.1016L64.8438 40.0391C64.6484 39.8438 64.3945 39.7266 64.1211 39.7266C63.9258 39.7266 63.7305 39.7852 63.5742 39.9023C63.3594 40.0586 63.2031 40.2734 63.1641 40.5273C63.1055 40.7812 63.1641 41.0352 63.3008 41.25L73.4766 54.3359L73.75 54.6875L73.4766 55.0391L63.2812 68.1641C62.9492 68.5938 63.0273 69.1992 63.457 69.5312C63.6328 69.668 63.8281 69.7266 64.043 69.7266C64.5703 69.7266 64.5898 69.7266 66.9922 66.543C68.6133 64.4531 71.2695 60.9375 75.7812 55.2734C76.0352 54.9219 76.0352 54.4336 75.7617 54.1016ZM55.0781 39.6875C54.9805 39.6484 54.8633 39.6289 54.7656 39.6289C54.3359 39.6289 53.9648 39.9023 53.8281 40.293L44.4531 68.418C44.2773 68.9258 44.5508 69.4922 45.0586 69.668C45.1562 69.707 45.2734 69.7266 45.3711 69.7266C45.8008 69.7266 46.1719 69.4531 46.3086 69.0625L55.6836 40.9375C55.8594 40.4297 55.5859 39.8633 55.0781 39.6875ZM26.5234 55.0391L26.25 54.6875L26.5234 54.3359L36.7188 41.2109L36.7383 41.1914V41.1719C36.7578 41.1328 36.7969 41.1133 36.8164 41.0742C36.9727 40.8594 37.0117 40.6055 36.9727 40.332C36.9336 40.0586 36.7773 39.8438 36.5625 39.707C36.4062 39.5898 36.2109 39.5312 36.0156 39.5312C35.6836 39.5312 35.3906 39.6875 35.1953 39.9609V39.9805L35.1562 40.0391L24.2188 54.1016C23.9453 54.4531 23.9453 54.9414 24.2188 55.293L35.1562 69.3359C35.3516 69.5312 35.6055 69.6484 35.8789 69.6484C36.0742 69.6484 36.2695 69.5898 36.4258 69.4727C36.6406 69.3164 36.7969 69.1016 36.8359 68.8477C36.8945 68.5938 36.8359 68.3398 36.6992 68.125L26.5234 55.0391ZM26.5234 55.0391L26.25 54.6875L26.5234 54.3359L36.7188 41.2109L36.7383 41.1914V41.1719C36.7578 41.1328 36.7969 41.1133 36.8164 41.0742C36.9727 40.8594 37.0117 40.6055 36.9727 40.332C36.9336 40.0586 36.7773 39.8438 36.5625 39.707C36.4062 39.5898 36.2109 39.5312 36.0156 39.5312C35.6836 39.5312 35.3906 39.6875 35.1953 39.9609V39.9805L35.1562 40.0391L24.2188 54.1016C23.9453 54.4531 23.9453 54.9414 24.2188 55.293L35.1562 69.3359C35.3516 69.5312 35.6055 69.6484 35.8789 69.6484C36.0742 69.6484 36.2695 69.5898 36.4258 69.4727C36.6406 69.3164 36.7969 69.1016 36.8359 68.8477C36.8945 68.5938 36.8359 68.3398 36.6992 68.125L26.5234 55.0391ZM55.0781 39.6875C54.9805 39.6484 54.8633 39.6289 54.7656 39.6289C54.3359 39.6289 53.9648 39.9023 53.8281 40.293L44.4531 68.418C44.2773 68.9258 44.5508 69.4922 45.0586 69.668C45.1562 69.707 45.2734 69.7266 45.3711 69.7266C45.8008 69.7266 46.1719 69.4531 46.3086 69.0625L55.6836 40.9375C55.8594 40.4297 55.5859 39.8633 55.0781 39.6875ZM75.7617 54.1016L64.8438 40.0391C64.6484 39.8438 64.3945 39.7266 64.1211 39.7266C63.9258 39.7266 63.7305 39.7852 63.5742 39.9023C63.3594 40.0586 63.2031 40.2734 63.1641 40.5273C63.1055 40.7812 63.1641 41.0352 63.3008 41.25L73.4766 54.3359L73.75 54.6875L73.4766 55.0391L63.2812 68.1641C62.9492 68.5938 63.0273 69.1992 63.457 69.5312C63.6328 69.668 63.8281 69.7266 64.043 69.7266C64.5703 69.7266 64.5898 69.7266 66.9922 66.543C68.6133 64.4531 71.2695 60.9375 75.7812 55.2734C76.0352 54.9219 76.0352 54.4336 75.7617 54.1016ZM75.7617 54.1016L64.8438 40.0391C64.6484 39.8438 64.3945 39.7266 64.1211 39.7266C63.9258 39.7266 63.7305 39.7852 63.5742 39.9023C63.3594 40.0586 63.2031 40.2734 63.1641 40.5273C63.1055 40.7812 63.1641 41.0352 63.3008 41.25L73.4766 54.3359L73.75 54.6875L73.4766 55.0391L63.2812 68.1641C62.9492 68.5938 63.0273 69.1992 63.457 69.5312C63.6328 69.668 63.8281 69.7266 64.043 69.7266C64.5703 69.7266 64.5898 69.7266 66.9922 66.543C68.6133 64.4531 71.2695 60.9375 75.7812 55.2734C76.0352 54.9219 76.0352 54.4336 75.7617 54.1016ZM55.0781 39.6875C54.9805 39.6484 54.8633 39.6289 54.7656 39.6289C54.3359 39.6289 53.9648 39.9023 53.8281 40.293L44.4531 68.418C44.2773 68.9258 44.5508 69.4922 45.0586 69.668C45.1562 69.707 45.2734 69.7266 45.3711 69.7266C45.8008 69.7266 46.1719 69.4531 46.3086 69.0625L55.6836 40.9375C55.8594 40.4297 55.5859 39.8633 55.0781 39.6875ZM26.5234 55.0391L26.25 54.6875L26.5234 54.3359L36.7188 41.2109L36.7383 41.1914V41.1719C36.7578 41.1328 36.7969 41.1133 36.8164 41.0742C36.9727 40.8594 37.0117 40.6055 36.9727 40.332C36.9336 40.0586 36.7773 39.8438 36.5625 39.707C36.4062 39.5898 36.2109 39.5312 36.0156 39.5312C35.6836 39.5312 35.3906 39.6875 35.1953 39.9609V39.9805L35.1562 40.0391L24.2188 54.1016C23.9453 54.4531 23.9453 54.9414 24.2188 55.293L35.1562 69.3359C35.3516 69.5312 35.6055 69.6484 35.8789 69.6484C36.0742 69.6484 36.2695 69.5898 36.4258 69.4727C36.6406 69.3164 36.7969 69.1016 36.8359 68.8477C36.8945 68.5938 36.8359 68.3398 36.6992 68.125L26.5234 55.0391ZM26.5234 55.0391L26.25 54.6875L26.5234 54.3359L36.7188 41.2109L36.7383 41.1914V41.1719C36.7578 41.1328 36.7969 41.1133 36.8164 41.0742C36.9727 40.8594 37.0117 40.6055 36.9727 40.332C36.9336 40.0586 36.7773 39.8438 36.5625 39.707C36.4062 39.5898 36.2109 39.5312 36.0156 39.5312C35.6836 39.5312 35.3906 39.6875 35.1953 39.9609V39.9805L35.1562 40.0391L24.2188 54.1016C23.9453 54.4531 23.9453 54.9414 24.2188 55.293L35.1562 69.3359C35.3516 69.5312 35.6055 69.6484 35.8789 69.6484C36.0742 69.6484 36.2695 69.5898 36.4258 69.4727C36.6406 69.3164 36.7969 69.1016 36.8359 68.8477C36.8945 68.5938 36.8359 68.3398 36.6992 68.125L26.5234 55.0391ZM55.0781 39.6875C54.9805 39.6484 54.8633 39.6289 54.7656 39.6289C54.3359 39.6289 53.9648 39.9023 53.8281 40.293L44.4531 68.418C44.2773 68.9258 44.5508 69.4922 45.0586 69.668C45.1562 69.707 45.2734 69.7266 45.3711 69.7266C45.8008 69.7266 46.1719 69.4531 46.3086 69.0625L55.6836 40.9375C55.8594 40.4297 55.5859 39.8633 55.0781 39.6875ZM75.7617 54.1016L64.8438 40.0391C64.6484 39.8438 64.3945 39.7266 64.1211 39.7266C63.9258 39.7266 63.7305 39.7852 63.5742 39.9023C63.3594 40.0586 63.2031 40.2734 63.1641 40.5273C63.1055 40.7812 63.1641 41.0352 63.3008 41.25L73.4766 54.3359L73.75 54.6875L73.4766 55.0391L63.2812 68.1641C62.9492 68.5938 63.0273 69.1992 63.457 69.5312C63.6328 69.668 63.8281 69.7266 64.043 69.7266C64.5703 69.7266 64.5898 69.7266 66.9922 66.543C68.6133 64.4531 71.2695 60.9375 75.7812 55.2734C76.0352 54.9219 76.0352 54.4336 75.7617 54.1016ZM75.7617 54.1016L64.8438 40.0391C64.6484 39.8438 64.3945 39.7266 64.1211 39.7266C63.9258 39.7266 63.7305 39.7852 63.5742 39.9023C63.3594 40.0586 63.2031 40.2734 63.1641 40.5273C63.1055 40.7812 63.1641 41.0352 63.3008 41.25L73.4766 54.3359L73.75 54.6875L73.4766 55.0391L63.2812 68.1641C62.9492 68.5938 63.0273 69.1992 63.457 69.5312C63.6328 69.668 63.8281 69.7266 64.043 69.7266C64.5703 69.7266 64.5898 69.7266 66.9922 66.543C68.6133 64.4531 71.2695 60.9375 75.7812 55.2734C76.0352 54.9219 76.0352 54.4336 75.7617 54.1016ZM55.0781 39.6875C54.9805 39.6484 54.8633 39.6289 54.7656 39.6289C54.3359 39.6289 53.9648 39.9023 53.8281 40.293L44.4531 68.418C44.2773 68.9258 44.5508 69.4922 45.0586 69.668C45.1562 69.707 45.2734 69.7266 45.3711 69.7266C45.8008 69.7266 46.1719 69.4531 46.3086 69.0625L55.6836 40.9375C55.8594 40.4297 55.5859 39.8633 55.0781 39.6875ZM36.7188 41.2109L36.7383 41.1914C36.7578 41.1523 36.7969 41.1328 36.8164 41.0937C36.9727 40.8789 37.0117 40.625 36.9727 40.3516C36.9336 40.0781 36.7773 39.8633 36.5625 39.7266C36.4062 39.6094 36.2109 39.5508 36.0156 39.5508C35.6836 39.5508 35.3906 39.707 35.1953 39.9805V40L35.1562 40.0391L24.2188 54.1016C23.9453 54.4531 23.9453 54.9414 24.2188 55.293L35.1562 69.3359C35.3516 69.5312 35.6055 69.6484 35.8789 69.6484C36.0742 69.6484 36.2695 69.5898 36.4258 69.4727C36.6406 69.3164 36.7969 69.1016 36.8359 68.8477C36.8945 68.5938 36.8359 68.3398 36.6992 68.125L26.5234 55.0391L26.25 54.6875L26.5234 54.3359L36.7188 41.2109ZM84.375 16.2109H15.625C13.3594 16.2109 11.5234 18.0469 11.5234 20.3125V79.6875C11.5234 81.9531 13.3594 83.7891 15.625 83.7891H84.375C86.6406 83.7891 88.4766 81.9531 88.4766 79.6875V20.3125C88.4766 18.0469 86.6406 16.2109 84.375 16.2109ZM86.5234 79.6875C86.5234 80.8789 85.5664 81.8359 84.375 81.8359H15.625C14.4336 81.8359 13.4766 80.8789 13.4766 79.6875V27.5391H86.5234V79.6875ZM86.5234 25.5859H13.4766V20.3125C13.4766 19.1211 14.4336 18.1641 15.625 18.1641H84.375C85.5664 18.1641 86.5234 19.1211 86.5234 20.3125V25.5859ZM63.2812 68.1641C62.9492 68.5938 63.0273 69.1992 63.457 69.5312C63.6328 69.668 63.8281 69.7266 64.043 69.7266C64.5703 69.7266 64.5898 69.7266 66.9922 66.543C68.6133 64.4531 71.2695 60.9375 75.7812 55.2734C76.0547 54.9219 76.0547 54.4336 75.7812 54.082L64.8438 40.0391C64.6484 39.8438 64.3945 39.7266 64.1211 39.7266C63.9258 39.7266 63.7305 39.7852 63.5742 39.9023C63.3594 40.0586 63.2031 40.2734 63.1641 40.5273C63.1055 40.7812 63.1641 41.0352 63.3008 41.25L73.4766 54.3359L73.75 54.6875L73.4766 55.0391L63.2812 68.1641ZM45.0781 69.6875C45.1758 69.7266 45.293 69.7461 45.3906 69.7461C45.8203 69.7461 46.1914 69.4727 46.3281 69.082L55.7031 40.957C55.8789 40.4492 55.6055 39.8828 55.0781 39.707C54.9805 39.668 54.8633 39.6484 54.7656 39.6484C54.3359 39.6484 53.9648 39.9219 53.8281 40.3125L44.4531 68.4375C44.2969 68.9453 44.5703 69.5117 45.0781 69.6875ZM35.1562 69.3359C35.3516 69.5312 35.6055 69.6484 35.8789 69.6484C36.0742 69.6484 36.2695 69.5898 36.4258 69.4727C36.6406 69.3164 36.7969 69.1016 36.8359 68.8477C36.8945 68.5938 36.8359 68.3398 36.6992 68.125L26.5234 55.0391L26.25 54.6875L26.5234 54.3359L36.7188 41.2109L36.7383 41.1914V41.1719C36.7578 41.1328 36.7969 41.1133 36.8164 41.0742C36.9727 40.8594 37.0117 40.6055 36.9727 40.332C36.9336 40.0586 36.7773 39.8438 36.5625 39.707C36.4062 39.5898 36.2109 39.5312 36.0156 39.5312C35.6836 39.5312 35.3906 39.6875 35.1953 39.9609V39.9805L35.1562 40.0391L24.2188 54.1016C23.9453 54.4531 23.9453 54.9414 24.2188 55.293L35.1562 69.3359ZM26.5234 55.0391L26.25 54.6875L26.5234 54.3359L36.7188 41.2109L36.7383 41.1914V41.1719C36.7578 41.1328 36.7969 41.1133 36.8164 41.0742C36.9727 40.8594 37.0117 40.6055 36.9727 40.332C36.9336 40.0586 36.7773 39.8438 36.5625 39.707C36.4062 39.5898 36.2109 39.5312 36.0156 39.5312C35.6836 39.5312 35.3906 39.6875 35.1953 39.9609V39.9805L35.1562 40.0391L24.2188 54.1016C23.9453 54.4531 23.9453 54.9414 24.2188 55.293L35.1562 69.3359C35.3516 69.5312 35.6055 69.6484 35.8789 69.6484C36.0742 69.6484 36.2695 69.5898 36.4258 69.4727C36.6406 69.3164 36.7969 69.1016 36.8359 68.8477C36.8945 68.5938 36.8359 68.3398 36.6992 68.125L26.5234 55.0391ZM55.0781 39.6875C54.9805 39.6484 54.8633 39.6289 54.7656 39.6289C54.3359 39.6289 53.9648 39.9023 53.8281 40.293L44.4531 68.418C44.2773 68.9258 44.5508 69.4922 45.0586 69.668C45.1562 69.707 45.2734 69.7266 45.3711 69.7266C45.8008 69.7266 46.1719 69.4531 46.3086 69.0625L55.6836 40.9375C55.8594 40.4297 55.5859 39.8633 55.0781 39.6875ZM75.7617 54.1016L64.8438 40.0391C64.6484 39.8438 64.3945 39.7266 64.1211 39.7266C63.9258 39.7266 63.7305 39.7852 63.5742 39.9023C63.3594 40.0586 63.2031 40.2734 63.1641 40.5273C63.1055 40.7812 63.1641 41.0352 63.3008 41.25L73.4766 54.3359L73.75 54.6875L73.4766 55.0391L63.2812 68.1641C62.9492 68.5938 63.0273 69.1992 63.457 69.5312C63.6328 69.668 63.8281 69.7266 64.043 69.7266C64.5703 69.7266 64.5898 69.7266 66.9922 66.543C68.6133 64.4531 71.2695 60.9375 75.7812 55.2734C76.0352 54.9219 76.0352 54.4336 75.7617 54.1016ZM75.7617 54.1016L64.8438 40.0391C64.6484 39.8438 64.3945 39.7266 64.1211 39.7266C63.9258 39.7266 63.7305 39.7852 63.5742 39.9023C63.3594 40.0586 63.2031 40.2734 63.1641 40.5273C63.1055 40.7812 63.1641 41.0352 63.3008 41.25L73.4766 54.3359L73.75 54.6875L73.4766 55.0391L63.2812 68.1641C62.9492 68.5938 63.0273 69.1992 63.457 69.5312C63.6328 69.668 63.8281 69.7266 64.043 69.7266C64.5703 69.7266 64.5898 69.7266 66.9922 66.543C68.6133 64.4531 71.2695 60.9375 75.7812 55.2734C76.0352 54.9219 76.0352 54.4336 75.7617 54.1016ZM55.0781 39.6875C54.9805 39.6484 54.8633 39.6289 54.7656 39.6289C54.3359 39.6289 53.9648 39.9023 53.8281 40.293L44.4531 68.418C44.2773 68.9258 44.5508 69.4922 45.0586 69.668C45.1562 69.707 45.2734 69.7266 45.3711 69.7266C45.8008 69.7266 46.1719 69.4531 46.3086 69.0625L55.6836 40.9375C55.8594 40.4297 55.5859 39.8633 55.0781 39.6875ZM26.5234 55.0391L26.25 54.6875L26.5234 54.3359L36.7188 41.2109L36.7383 41.1914V41.1719C36.7578 41.1328 36.7969 41.1133 36.8164 41.0742C36.9727 40.8594 37.0117 40.6055 36.9727 40.332C36.9336 40.0586 36.7773 39.8438 36.5625 39.707C36.4062 39.5898 36.2109 39.5312 36.0156 39.5312C35.6836 39.5312 35.3906 39.6875 35.1953 39.9609V39.9805L35.1562 40.0391L24.2188 54.1016C23.9453 54.4531 23.9453 54.9414 24.2188 55.293L35.1562 69.3359C35.3516 69.5312 35.6055 69.6484 35.8789 69.6484C36.0742 69.6484 36.2695 69.5898 36.4258 69.4727C36.6406 69.3164 36.7969 69.1016 36.8359 68.8477C36.8945 68.5938 36.8359 68.3398 36.6992 68.125L26.5234 55.0391ZM26.5234 55.0391L26.25 54.6875L26.5234 54.3359L36.7188 41.2109L36.7383 41.1914V41.1719C36.7578 41.1328 36.7969 41.1133 36.8164 41.0742C36.9727 40.8594 37.0117 40.6055 36.9727 40.332C36.9336 40.0586 36.7773 39.8438 36.5625 39.707C36.4062 39.5898 36.2109 39.5312 36.0156 39.5312C35.6836 39.5312 35.3906 39.6875 35.1953 39.9609V39.9805L35.1562 40.0391L24.2188 54.1016C23.9453 54.4531 23.9453 54.9414 24.2188 55.293L35.1562 69.3359C35.3516 69.5312 35.6055 69.6484 35.8789 69.6484C36.0742 69.6484 36.2695 69.5898 36.4258 69.4727C36.6406 69.3164 36.7969 69.1016 36.8359 68.8477C36.8945 68.5938 36.8359 68.3398 36.6992 68.125L26.5234 55.0391ZM55.0781 39.6875C54.9805 39.6484 54.8633 39.6289 54.7656 39.6289C54.3359 39.6289 53.9648 39.9023 53.8281 40.293L44.4531 68.418C44.2773 68.9258 44.5508 69.4922 45.0586 69.668C45.1562 69.707 45.2734 69.7266 45.3711 69.7266C45.8008 69.7266 46.1719 69.4531 46.3086 69.0625L55.6836 40.9375C55.8594 40.4297 55.5859 39.8633 55.0781 39.6875ZM75.7617 54.1016L64.8438 40.0391C64.6484 39.8438 64.3945 39.7266 64.1211 39.7266C63.9258 39.7266 63.7305 39.7852 63.5742 39.9023C63.3594 40.0586 63.2031 40.2734 63.1641 40.5273C63.1055 40.7812 63.1641 41.0352 63.3008 41.25L73.4766 54.3359L73.75 54.6875L73.4766 55.0391L63.2812 68.1641C62.9492 68.5938 63.0273 69.1992 63.457 69.5312C63.6328 69.668 63.8281 69.7266 64.043 69.7266C64.5703 69.7266 64.5898 69.7266 66.9922 66.543C68.6133 64.4531 71.2695 60.9375 75.7812 55.2734C76.0352 54.9219 76.0352 54.4336 75.7617 54.1016ZM75.7617 54.1016L64.8438 40.0391C64.6484 39.8438 64.3945 39.7266 64.1211 39.7266C63.9258 39.7266 63.7305 39.7852 63.5742 39.9023C63.3594 40.0586 63.2031 40.2734 63.1641 40.5273C63.1055 40.7812 63.1641 41.0352 63.3008 41.25L73.4766 54.3359L73.75 54.6875L73.4766 55.0391L63.2812 68.1641C62.9492 68.5938 63.0273 69.1992 63.457 69.5312C63.6328 69.668 63.8281 69.7266 64.043 69.7266C64.5703 69.7266 64.5898 69.7266 66.9922 66.543C68.6133 64.4531 71.2695 60.9375 75.7812 55.2734C76.0352 54.9219 76.0352 54.4336 75.7617 54.1016ZM55.0781 39.6875C54.9805 39.6484 54.8633 39.6289 54.7656 39.6289C54.3359 39.6289 53.9648 39.9023 53.8281 40.293L44.4531 68.418C44.2773 68.9258 44.5508 69.4922 45.0586 69.668C45.1562 69.707 45.2734 69.7266 45.3711 69.7266C45.8008 69.7266 46.1719 69.4531 46.3086 69.0625L55.6836 40.9375C55.8594 40.4297 55.5859 39.8633 55.0781 39.6875ZM26.5234 55.0391L26.25 54.6875L26.5234 54.3359L36.7188 41.2109L36.7383 41.1914V41.1719C36.7578 41.1328 36.7969 41.1133 36.8164 41.0742C36.9727 40.8594 37.0117 40.6055 36.9727 40.332C36.9336 40.0586 36.7773 39.8438 36.5625 39.707C36.4062 39.5898 36.2109 39.5312 36.0156 39.5312C35.6836 39.5312 35.3906 39.6875 35.1953 39.9609V39.9805L35.1562 40.0391L24.2188 54.1016C23.9453 54.4531 23.9453 54.9414 24.2188 55.293L35.1562 69.3359C35.3516 69.5312 35.6055 69.6484 35.8789 69.6484C36.0742 69.6484 36.2695 69.5898 36.4258 69.4727C36.6406 69.3164 36.7969 69.1016 36.8359 68.8477C36.8945 68.5938 36.8359 68.3398 36.6992 68.125L26.5234 55.0391ZM26.5234 55.0391L26.25 54.6875L26.5234 54.3359L36.7188 41.2109L36.7383 41.1914V41.1719C36.7578 41.1328 36.7969 41.1133 36.8164 41.0742C36.9727 40.8594 37.0117 40.6055 36.9727 40.332C36.9336 40.0586 36.7773 39.8438 36.5625 39.707C36.4062 39.5898 36.2109 39.5312 36.0156 39.5312C35.6836 39.5312 35.3906 39.6875 35.1953 39.9609V39.9805L35.1562 40.0391L24.2188 54.1016C23.9453 54.4531 23.9453 54.9414 24.2188 55.293L35.1562 69.3359C35.3516 69.5312 35.6055 69.6484 35.8789 69.6484C36.0742 69.6484 36.2695 69.5898 36.4258 69.4727C36.6406 69.3164 36.7969 69.1016 36.8359 68.8477C36.8945 68.5938 36.8359 68.3398 36.6992 68.125L26.5234 55.0391ZM55.0781 39.6875C54.9805 39.6484 54.8633 39.6289 54.7656 39.6289C54.3359 39.6289 53.9648 39.9023 53.8281 40.293L44.4531 68.418C44.2773 68.9258 44.5508 69.4922 45.0586 69.668C45.1562 69.707 45.2734 69.7266 45.3711 69.7266C45.8008 69.7266 46.1719 69.4531 46.3086 69.0625L55.6836 40.9375C55.8594 40.4297 55.5859 39.8633 55.0781 39.6875ZM75.7617 54.1016L64.8438 40.0391C64.6484 39.8438 64.3945 39.7266 64.1211 39.7266C63.9258 39.7266 63.7305 39.7852 63.5742 39.9023C63.3594 40.0586 63.2031 40.2734 63.1641 40.5273C63.1055 40.7812 63.1641 41.0352 63.3008 41.25L73.4766 54.3359L73.75 54.6875L73.4766 55.0391L63.2812 68.1641C62.9492 68.5938 63.0273 69.1992 63.457 69.5312C63.6328 69.668 63.8281 69.7266 64.043 69.7266C64.5703 69.7266 64.5898 69.7266 66.9922 66.543C68.6133 64.4531 71.2695 60.9375 75.7812 55.2734C76.0352 54.9219 76.0352 54.4336 75.7617 54.1016ZM26.5234 55.0391L26.25 54.6875L26.5234 54.3359L36.7188 41.2109L36.7383 41.1914V41.1719C36.7578 41.1328 36.7969 41.1133 36.8164 41.0742C36.9727 40.8594 37.0117 40.6055 36.9727 40.332C36.9336 40.0586 36.7773 39.8438 36.5625 39.707C36.4062 39.5898 36.2109 39.5312 36.0156 39.5312C35.6836 39.5312 35.3906 39.6875 35.1953 39.9609V39.9805L35.1562 40.0391L24.2188 54.1016C23.9453 54.4531 23.9453 54.9414 24.2188 55.293L35.1562 69.3359C35.3516 69.5312 35.6055 69.6484 35.8789 69.6484C36.0742 69.6484 36.2695 69.5898 36.4258 69.4727C36.6406 69.3164 36.7969 69.1016 36.8359 68.8477C36.8945 68.5938 36.8359 68.3398 36.6992 68.125L26.5234 55.0391ZM75.7617 54.1016L64.8438 40.0391C64.6484 39.8438 64.3945 39.7266 64.1211 39.7266C63.9258 39.7266 63.7305 39.7852 63.5742 39.9023C63.3594 40.0586 63.2031 40.2734 63.1641 40.5273C63.1055 40.7812 63.1641 41.0352 63.3008 41.25L73.4766 54.3359L73.75 54.6875L73.4766 55.0391L63.2812 68.1641C62.9492 68.5938 63.0273 69.1992 63.457 69.5312C63.6328 69.668 63.8281 69.7266 64.043 69.7266C64.5703 69.7266 64.5898 69.7266 66.9922 66.543C68.6133 64.4531 71.2695 60.9375 75.7812 55.2734C76.0352 54.9219 76.0352 54.4336 75.7617 54.1016ZM55.0781 39.6875C54.9805 39.6484 54.8633 39.6289 54.7656 39.6289C54.3359 39.6289 53.9648 39.9023 53.8281 40.293L44.4531 68.418C44.2773 68.9258 44.5508 69.4922 45.0586 69.668C45.1562 69.707 45.2734 69.7266 45.3711 69.7266C45.8008 69.7266 46.1719 69.4531 46.3086 69.0625L55.6836 40.9375C55.8594 40.4297 55.5859 39.8633 55.0781 39.6875Z" fill="#6D07CB"/>
</svg>
