<svg width="286" height="66" viewBox="0 0 286 66" fill="none" xmlns="http://www.w3.org/2000/svg">
<path opacity="0.4" d="M39.6243 28.1965C39.8353 29.339 39.1062 30.3882 37.991 30.6057C36.8758 30.8233 35.7869 30.0919 35.5687 28.9804C34.9163 25.6342 32.3261 23.0504 28.9684 22.3955L28.966 22.3955C27.9995 22.2091 27.2968 21.3582 27.2968 20.3782C27.2968 20.2468 27.3087 20.1153 27.3327 19.9815C27.5558 18.87 28.6422 18.1386 29.7599 18.3562C34.7748 19.3337 38.6482 23.1938 39.6243 28.1965Z" fill="#D423FD"/>
<path opacity="0.4" d="M47.981 28.3459C48.0577 28.8813 47.8994 29.419 47.5589 29.8469C47.2135 30.2867 46.7146 30.5615 46.1558 30.6213C45.0262 30.748 44.0045 29.9329 43.8774 28.8048C43.0092 21.0248 36.9485 14.9777 29.1443 14.1029C28.0986 13.9858 27.3096 13.1086 27.3096 12.0617C27.3096 11.9828 27.3144 11.9063 27.324 11.8274C27.3839 11.2801 27.6549 10.7925 28.0866 10.4483C28.5183 10.1065 29.0556 9.95116 29.6048 10.0133C39.3421 11.1032 46.8993 18.6394 47.981 28.3459Z" fill="#D423FD"/>
<path d="M17.5849 20.5488C17.9159 22.1048 17.1964 23.3357 16.568 24.4256C15.9205 25.5418 14.2056 27.6667 14.6469 28.8809C17.1988 35.1097 22.6311 40.9679 28.8572 43.5039C30.0971 43.9509 32.2245 42.2371 33.3469 41.5942C34.4358 40.9656 35.6757 40.2581 37.2346 40.5807C38.6377 40.8723 43.4176 44.644 44.7247 45.9777C45.5881 46.8597 46.063 47.7584 46.1421 48.6834C46.2884 52.1611 41.6668 56.0451 40.5611 56.7263C38.2036 58.4353 35.0665 58.4233 31.2627 56.6976C21.0457 52.5387 5.62674 36.8091 1.32889 26.5122C0.443898 24.6144 0.000206615 22.8744 0.000206643 21.3136C0.00020667 19.7863 0.424714 18.4263 1.26653 17.2575C1.77259 16.3779 5.833 11.545 9.38976 11.6741C10.2963 11.7482 11.2029 12.2238 12.0807 13.0795C13.4214 14.3845 17.2899 19.1505 17.5849 20.5488Z" fill="#D423FD"/>
</svg>
