<svg width="334" height="66" viewBox="0 0 334 66" fill="none" xmlns="http://www.w3.org/2000/svg">
<path opacity="0.4" d="M53 42.5564C53 49.2524 47.624 54.6764 40.928 54.7004H40.904H17.12C10.448 54.7004 5 49.3004 5 42.6044V42.5804C5 42.5804 5.0144 31.958 5.0336 26.6156C5.036 25.6124 6.188 25.0508 6.9728 25.6748C12.6752 30.1988 22.8728 38.4476 23 38.5556C24.704 39.9212 26.864 40.6916 29.072 40.6916C31.28 40.6916 33.44 39.9212 35.144 38.5292C35.2712 38.4452 45.2408 30.4436 51.0296 25.8452C51.8168 25.2188 52.9736 25.7804 52.976 26.7812C53 32.0828 53 42.5564 53 42.5564Z" fill="#D423FD"/>
<path d="M51.7421 17.9166C49.6637 13.9998 45.5741 11.499 41.0717 11.499H17.1197C12.6173 11.499 8.52772 13.9998 6.44932 17.9166C5.98372 18.7926 6.20452 19.8846 6.97972 20.5038L24.7997 34.7574C26.0477 35.7654 27.5597 36.267 29.0717 36.267C29.0813 36.267 29.0885 36.267 29.0957 36.267C29.1029 36.267 29.1125 36.267 29.1197 36.267C30.6317 36.267 32.1437 35.7654 33.3917 34.7574L51.2117 20.5038C51.9869 19.8846 52.2077 18.7926 51.7421 17.9166Z" fill="#D423FD"/>
</svg>
